<svg width="25" height="12" viewBox="0 0 25 12" fill="none" xmlns="http://www.w3.org/2000/svg">
<path d="M0.805298 6.26147L23.6927 6.26148" stroke="white" stroke-width="0.726793"/>
<path fill-rule="evenodd" clip-rule="evenodd" d="M18.5656 1.01915C18.7059 1.95937 19.1405 3.35884 20.0005 4.52498C20.5312 5.24455 21.2307 5.88256 22.1246 6.26145C21.2307 6.64033 20.5312 7.27835 20.0005 7.99791C19.1405 9.16405 18.7059 10.5635 18.5656 11.5037L19.2844 11.611C19.4115 10.7593 19.8113 9.47897 20.5854 8.42929C21.3281 7.42229 22.3976 6.64619 23.9046 6.62488C23.9467 6.62539 23.989 6.62539 24.0317 6.62487C24.0389 6.62497 24.0461 6.62509 24.0533 6.62522L24.0533 6.62457C24.0578 6.6245 24.0622 6.62442 24.0667 6.62434L24.06 6.26145L24.0667 5.89855C24.0622 5.89847 24.0578 5.89839 24.0533 5.89832L24.0533 5.89767C24.0461 5.8978 24.0389 5.89792 24.0317 5.89802C23.989 5.89751 23.9467 5.89751 23.9046 5.89801C22.3976 5.87671 21.3281 5.10061 20.5854 4.09361C19.8113 3.04393 19.4115 1.76356 19.2844 0.911865L18.5656 1.01915Z" fill="white"/>
</svg>
