<svg width="16" height="16" viewBox="0 0 16 16" fill="none" xmlns="http://www.w3.org/2000/svg">
<g clip-path="url(#clip0_1_1026)">
<path d="M8 0C3.58827 0 0 3.58827 0 8C0 12.4117 3.58827 16 8 16C12.4117 16 16 12.4117 16 8C16 3.58827 12.4117 0 8 0ZM8 14.5C4.47147 14.5 1.5 11.5285 1.5 8C1.5 4.47147 4.47147 1.5 8 1.5C11.5285 1.5 14.5 4.47147 14.5 8C14.5 11.5285 11.5285 14.5 8 14.5Z" fill="white"/>
<path d="M6.4 6.40006L4.49074 10.8527C4.31283 11.2676 4.73241 11.6872 5.14732 11.5093L9.6 9.60006L11.5093 5.14738C11.6872 4.73247 11.2676 4.31289 10.8527 4.4908L6.4 6.40006ZM8 8.80219C7.55626 8.80219 7.19786 8.44379 7.19786 8.00006C7.19786 7.55633 7.55626 7.19793 8 7.19793C8.44373 7.19793 8.80213 7.55633 8.80213 8.00006C8.80213 8.44379 8.44373 8.80219 8 8.80219Z" fill="white"/>
</g>
<defs>
<clipPath id="clip0_1_1026">
<rect width="16" height="16" fill="white"/>
</clipPath>
</defs>
</svg>
