<svg width="137" height="143" viewBox="0 0 137 143" fill="none" xmlns="http://www.w3.org/2000/svg">
<g clip-path="url(#clip0_1_1205)">
<path d="M7.96502 56.0482C8.347 54.3137 9.02456 52.8738 9.9977 51.7283C10.9708 50.5828 12.1599 49.7961 13.5648 49.3682C14.9575 48.9213 16.4664 48.8768 18.0914 49.2347C19.7009 49.5891 21.0515 50.2634 22.1432 51.2575C23.2384 52.2359 23.9852 53.4571 24.3837 54.9211C24.7856 56.3694 24.7973 57.953 24.4187 59.6718L23.0612 65.8361L6.60746 62.2125L7.96502 56.0482ZM20.8931 59.1657C21.2269 57.65 21.0726 56.3791 20.4303 55.3529C19.788 54.3267 18.7089 53.6467 17.1933 53.3129C15.6776 52.9792 14.4049 53.1412 13.3753 53.7992C12.3457 54.4571 11.664 55.544 11.3302 57.0596L10.9121 58.9581L20.475 61.0642L20.8931 59.1657Z" fill="white"/>
<path d="M14.7031 36.2519L29.3842 44.5176L27.3708 48.0937L12.6897 39.8281L14.7031 36.2519Z" fill="white"/>
<path d="M35.9807 36.6461C35.1183 37.5208 34.2035 38.1646 33.2363 38.5776C32.2691 38.9905 31.3 39.1328 30.329 39.0043C29.3691 38.8645 28.4861 38.4195 27.6799 37.6694L30.7375 34.5681C31.2253 34.9595 31.7173 35.1421 32.2135 35.1161C32.6983 35.0788 33.1479 34.85 33.5623 34.4297C33.9879 33.998 34.2273 33.562 34.2806 33.1217C34.3225 32.6701 34.1674 32.2708 33.8152 31.9236C33.5199 31.6324 33.1748 31.4938 32.7801 31.5079C32.3966 31.5106 31.9967 31.5981 31.5806 31.7702C31.1756 31.931 30.6304 32.2 29.945 32.5771C28.9448 33.1144 28.0847 33.5097 27.3645 33.7629C26.6443 34.0162 25.8778 34.0893 25.0648 33.9823C24.2519 33.8753 23.4705 33.4521 22.7207 32.7129C21.6075 31.6153 21.136 30.3553 21.3064 28.9327C21.4655 27.4989 22.1834 26.1345 23.4602 24.8395C24.7594 23.5217 26.1247 22.7732 27.556 22.5938C28.976 22.4033 30.2763 22.834 31.457 23.886L28.349 27.0384C27.9403 26.6803 27.4993 26.5255 27.0259 26.574C26.5411 26.6113 26.0971 26.8344 25.6939 27.2433C25.3467 27.5955 25.1632 27.9747 25.1435 28.3809C25.1125 28.776 25.2731 29.1471 25.6252 29.4943C26.0115 29.8751 26.4917 29.9901 27.0659 29.8394C27.6402 29.6887 28.4331 29.3503 29.4446 28.8242C30.4675 28.3093 31.3334 27.9309 32.0423 27.689C32.7625 27.4357 33.5234 27.357 34.325 27.4529C35.1266 27.5487 35.8852 27.9494 36.6009 28.655C37.2825 29.327 37.728 30.1135 37.9375 31.0145C38.1581 31.9041 38.1083 32.8407 37.7882 33.8244C37.468 34.8081 36.8655 35.7486 35.9807 36.6461Z" fill="white"/>
<path d="M38.6727 22.5691C38.0018 21.0464 37.7344 19.5469 37.8707 18.0706C38.0006 16.5797 38.506 15.2467 39.387 14.0717C40.2762 12.8756 41.4675 11.9485 42.9609 11.2905C44.7911 10.484 46.5707 10.2769 48.2996 10.669C50.0285 11.0612 51.4803 11.9951 52.6551 13.4706L48.5261 15.29C47.9348 14.7813 47.2794 14.4843 46.56 14.3992C45.8552 14.3076 45.1441 14.4198 44.4267 14.736C43.27 15.2456 42.5104 16.0612 42.1478 17.1826C41.7852 18.304 41.9006 19.5382 42.4942 20.8853C43.0877 22.2323 43.9206 23.1504 44.9929 23.6396C46.0652 24.1287 47.1797 24.1185 48.3364 23.6088C49.0538 23.2926 49.6165 22.8436 50.0245 22.2617C50.4472 21.6733 50.6703 20.9893 50.6939 20.2096L54.8228 18.3902C55.119 20.2529 54.8285 21.9545 53.9512 23.4951C53.0675 25.021 51.7105 26.1871 49.8803 26.9936C48.3869 27.6517 46.902 27.9125 45.4257 27.7763C43.9576 27.6189 42.6328 27.0924 41.4514 26.1967C40.2699 25.3011 39.3437 24.0919 38.6727 22.5691Z" fill="white"/>
<path d="M68.0707 23.2911C66.4867 23.2594 65.038 22.8623 63.7248 22.0998C62.4275 21.3375 61.4 20.2926 60.6422 18.9649C59.9008 17.6215 59.5465 16.1258 59.5795 14.4778C59.6124 12.8298 60.026 11.3575 60.8203 10.0609C61.6305 8.76457 62.699 7.76153 64.0257 7.05177C65.3684 6.34233 66.8318 6.00345 68.4158 6.03513C69.9998 6.06681 71.4404 6.46377 72.7377 7.22601C74.051 7.98857 75.0705 9.03337 75.7963 10.3604C76.538 11.6878 76.8924 13.1754 76.8595 14.8234C76.8265 16.4714 76.4128 17.9518 75.6182 19.2644C74.824 20.561 73.7635 21.5642 72.4368 22.274C71.11 22.9838 69.6547 23.3228 68.0707 23.2911ZM68.1456 19.5471C69.4896 19.574 70.5705 19.1474 71.3884 18.2674C72.2224 17.3878 72.654 16.2119 72.6835 14.7399C72.7132 13.2519 72.3289 12.0598 71.5305 11.1634C70.7484 10.2514 69.6854 9.78201 68.3414 9.75513C66.9814 9.72793 65.8846 10.1462 65.051 11.0098C64.2334 11.8738 63.8096 13.0578 63.7795 14.5618C63.7497 16.0498 64.1259 17.2498 64.908 18.1618C65.7064 19.0582 66.7856 19.5199 68.1456 19.5471Z" fill="white"/>
<path d="M100.91 14.7145L88.6729 27.8242L83.9477 25.7698L85.189 7.87928L89.2076 9.62648L87.9615 22.9993L96.9135 12.9769L100.91 14.7145Z" fill="white"/>
<path d="M108.141 25.356L105.79 27.8097L109.747 31.602L107.561 33.8829L103.604 30.0907L101.053 32.7518L105.529 37.0409L103.26 39.4082L95.8298 32.2874L107.455 20.1569L114.885 27.2777L112.617 29.645L108.141 25.356Z" fill="white"/>
<path d="M109.578 49.8282L113.632 43.8038L113.182 42.9287L107.526 45.8368L105.65 42.187L120.633 34.4832L123.783 40.609C124.39 41.79 124.699 42.8993 124.711 43.9367C124.73 44.9884 124.483 45.9072 123.969 46.6929C123.47 47.4714 122.779 48.0874 121.897 48.541C120.901 49.0531 119.865 49.2258 118.79 49.059C117.722 48.9064 116.743 48.3665 115.852 47.4391L111.696 53.9476L109.578 49.8282ZM115.765 41.6009L116.928 43.8633C117.272 44.5321 117.692 44.946 118.187 45.105C118.69 45.2782 119.241 45.2112 119.838 44.904C120.407 44.6113 120.768 44.2101 120.919 43.7003C121.078 43.2048 120.986 42.6226 120.642 41.9538L119.479 39.6914L115.765 41.6009Z" fill="white"/>
<path d="M129.75 69.5338L117.941 65.001L112.429 65.6134L111.977 61.5505L117.49 60.938L128.015 53.9235L128.527 58.533L121.901 62.5405L129.243 64.9719L129.75 69.5338Z" fill="white"/>
</g>
<circle cx="68" cy="66" r="37" fill="url(#paint0_linear_1_1205)"/>
<path d="M68 142.887L70.8868 140L68 137.113L65.1132 140L68 142.887ZM68.3536 65.6464C68.1583 65.4512 67.8417 65.4512 67.6464 65.6464L64.4645 68.8284C64.2692 69.0237 64.2692 69.3403 64.4645 69.5355C64.6597 69.7308 64.9763 69.7308 65.1716 69.5355L68 66.7071L70.8284 69.5355C71.0237 69.7308 71.3403 69.7308 71.5355 69.5355C71.7308 69.3403 71.7308 69.0237 71.5355 68.8284L68.3536 65.6464ZM68.5 140L68.5 66L67.5 66L67.5 140L68.5 140Z" fill="white"/>
<defs>
<linearGradient id="paint0_linear_1_1205" x1="67.8779" y1="29" x2="67.8779" y2="87.016" gradientUnits="userSpaceOnUse">
<stop stop-color="#2E3192"/>
<stop offset="1" stop-color="#1BFFFF"/>
</linearGradient>
<clipPath id="clip0_1_1205">
<rect width="115.44" height="135.84" fill="white" transform="translate(0.167969 116.099) rotate(-90)"/>
</clipPath>
</defs>
</svg>
