<svg width="16" height="16" viewBox="0 0 16 16" fill="none" xmlns="http://www.w3.org/2000/svg">
<g clip-path="url(#clip0_1_1034)">
<path d="M11.4583 10.1536C11.4583 10.3304 11.3881 10.5 11.2631 10.625C11.1381 10.75 10.9685 10.8203 10.7917 10.8203H5.45834C5.28153 10.8203 5.11196 10.75 4.98693 10.625C4.86191 10.5 4.79167 10.3304 4.79167 10.1536C4.79167 9.97681 4.86191 9.80724 4.98693 9.68221C5.11196 9.55719 5.28153 9.48695 5.45834 9.48695H10.7917C10.9685 9.48695 11.1381 9.55719 11.2631 9.68221C11.3881 9.80724 11.4583 9.97681 11.4583 10.1536ZM14.6666 6.99002V12.6667C14.6656 13.5504 14.3141 14.3976 13.6892 15.0225C13.0643 15.6474 12.217 15.999 11.3333 16H4.66665C3.78292 15.999 2.93568 15.6474 2.31079 15.0225C1.6859 14.3976 1.33437 13.5504 1.33331 12.6667V3.33335C1.33437 2.44962 1.6859 1.60239 2.31079 0.977495C2.93568 0.352603 3.78292 0.00107394 4.66665 1.53658e-05H7.67665C8.28973 -0.00156258 8.89704 0.118407 9.46346 0.352988C10.0299 0.587569 10.5442 0.932107 10.9766 1.36668L13.2993 3.69068C13.7341 4.12284 14.0789 4.63699 14.3136 5.20333C14.5483 5.76968 14.6683 6.37696 14.6666 6.99002ZM10.034 2.30935C9.82417 2.10612 9.5886 1.9313 9.33331 1.78935V4.66668C9.33331 4.84349 9.40355 5.01306 9.52858 5.13809C9.6536 5.26311 9.82317 5.33335 9.99998 5.33335H12.8773C12.7353 5.07814 12.5602 4.84278 12.3566 4.63335L10.034 2.30935ZM13.3333 6.99002C13.3333 6.88001 13.312 6.77468 13.302 6.66668H9.99998C9.46955 6.66668 8.96084 6.45597 8.58577 6.0809C8.21069 5.70582 7.99998 5.19712 7.99998 4.66668V1.36468C7.89198 1.35468 7.78598 1.33335 7.67665 1.33335H4.66665C4.13621 1.33335 3.62751 1.54406 3.25243 1.91914C2.87736 2.29421 2.66665 2.80292 2.66665 3.33335V12.6667C2.66665 13.1971 2.87736 13.7058 3.25243 14.0809C3.62751 14.456 4.13621 14.6667 4.66665 14.6667H11.3333C11.8637 14.6667 12.3725 14.456 12.7475 14.0809C13.1226 13.7058 13.3333 13.1971 13.3333 12.6667V6.99002Z" fill="white"/>
</g>
<defs>
<clipPath id="clip0_1_1034">
<rect width="16" height="16" fill="white"/>
</clipPath>
</defs>
</svg>
