<svg width="49" height="48" viewBox="0 0 49 48" fill="none" xmlns="http://www.w3.org/2000/svg">
<g clip-path="url(#clip0_1_1482)">
<path d="M24.5 -0.000488281C19.7532 -0.000488281 15.1131 1.40709 11.1663 4.04424C7.21951 6.6814 4.14337 10.4297 2.32687 14.8151C0.510368 19.2005 0.0350882 24.0261 0.961134 28.6817C1.88718 33.3372 4.17296 37.6136 7.52942 40.9701C10.8859 44.3265 15.1623 46.6123 19.8178 47.5384C24.4734 48.4644 29.299 47.9891 33.6844 46.1726C38.0698 44.3561 41.8181 41.28 44.4553 37.3332C47.0924 33.3864 48.5 28.7463 48.5 23.9995C48.5 17.6343 45.9714 11.5298 41.4705 7.02895C36.9697 2.52808 30.8652 -0.000488281 24.5 -0.000488281V-0.000488281ZM31.3274 15.6185C31.3274 16.07 31.1379 16.25 30.6958 16.25C29.8463 16.25 28.9968 16.25 28.1505 16.2848C27.3042 16.3195 26.8431 16.7048 26.8431 17.589C26.8242 18.5364 26.8431 19.4648 26.8431 20.4311H30.4779C30.9958 20.4311 31.1726 20.6079 31.1726 21.129C31.1726 22.3921 31.1726 23.6616 31.1726 24.9374C31.1726 25.4521 31.0084 25.6132 30.4873 25.6164H26.8116V35.8921C26.8116 36.4416 26.641 36.6153 26.0979 36.6153H22.1442C21.6673 36.6153 21.481 36.429 21.481 35.9521V25.6321H18.3421C17.8495 25.6321 17.6726 25.4521 17.6726 24.9564C17.6726 23.6785 17.6726 22.4016 17.6726 21.1258C17.6726 20.6332 17.8589 20.4469 18.3452 20.4469H21.481V17.6837C21.4438 16.4425 21.7416 15.2143 22.3431 14.1279C22.9684 13.0312 23.9705 12.1986 25.1631 11.7848C25.9372 11.5031 26.7553 11.362 27.5789 11.3679H30.6831C31.1284 11.3679 31.3147 11.5637 31.3147 11.9995C31.3305 13.2153 31.3305 14.4185 31.3274 15.6185Z" fill="white"/>
</g>
<defs>
<clipPath id="clip0_1_1482">
<rect width="48" height="48" fill="white" transform="translate(0.5 -0.000488281)"/>
</clipPath>
</defs>
</svg>
