<svg width="67" height="64" viewBox="0 0 67 64" fill="none" xmlns="http://www.w3.org/2000/svg">
<path d="M22.0979 13.8541C22.6966 12.0115 25.3034 12.0115 25.9021 13.8541L28.9393 23.2016C29.2071 24.0257 29.975 24.5836 30.8414 24.5836H40.67C42.6074 24.5836 43.413 27.0628 41.8456 28.2016L33.8941 33.9787C33.1931 34.488 32.8998 35.3907 33.1675 36.2148L36.2047 45.5623C36.8034 47.4049 34.6945 48.9372 33.127 47.7984L25.1756 42.0213C24.4746 41.512 23.5254 41.512 22.8244 42.0213L14.873 47.7984C13.3055 48.9372 11.1966 47.4049 11.7953 45.5623L14.8325 36.2148C15.1002 35.3907 14.8069 34.488 14.1059 33.9787L6.15444 28.2016C4.58701 27.0628 5.39257 24.5836 7.33001 24.5836H17.1586C18.025 24.5836 18.7929 24.0257 19.0607 23.2016L22.0979 13.8541Z" fill="url(#paint0_linear_1_1189)"/>
<g filter="url(#filter0_b_1_1189)">
<path d="M33.0979 5.8541C33.6966 4.01147 36.3034 4.01148 36.9021 5.8541L41.7354 20.7295C42.0032 21.5535 42.7711 22.1115 43.6375 22.1115H59.2784C61.2159 22.1115 62.0214 24.5907 60.454 25.7295L47.8002 34.923C47.0993 35.4323 46.806 36.335 47.0737 37.1591L51.907 52.0344C52.5057 53.8771 50.3968 55.4093 48.8293 54.2705L36.1756 45.077C35.4746 44.5677 34.5254 44.5677 33.8244 45.077L21.1707 54.2705C19.6032 55.4093 17.4943 53.8771 18.093 52.0344L22.9263 37.1591C23.194 36.335 22.9007 35.4323 22.1997 34.923L9.54598 25.7295C7.97855 24.5907 8.78411 22.1115 10.7216 22.1115H26.3625C27.2289 22.1115 27.9968 21.5535 28.2646 20.7295L33.0979 5.8541Z" fill="url(#paint1_linear_1_1189)" fill-opacity="0.4"/>
<path d="M36.4266 6.00861L41.2599 20.884C41.5946 21.9141 42.5545 22.6115 43.6375 22.6115H59.2784C60.7315 22.6115 61.3357 24.4709 60.1601 25.325L47.5064 34.5185C46.6301 35.1551 46.2635 36.2835 46.5982 37.3136L51.4315 52.1889C51.8805 53.5709 50.2988 54.7201 49.1232 53.866L36.4695 44.6725C35.5932 44.0359 34.4068 44.0359 33.5305 44.6725L20.8768 53.866C19.7012 54.7201 18.1195 53.5709 18.5685 52.1889L23.4018 37.3136C23.7365 36.2835 23.3699 35.1551 22.4936 34.5185L9.83987 25.325C8.66431 24.4709 9.26847 22.6115 10.7216 22.6115H26.3625C27.4455 22.6115 28.4054 21.9141 28.7401 20.884L33.5734 6.0086C34.0224 4.62664 35.9776 4.62664 36.4266 6.00861Z" stroke="url(#paint2_linear_1_1189)"/>
</g>
<defs>
<filter id="filter0_b_1_1189" x="-6.28229" y="-10.5279" width="82.5646" height="80.1895" filterUnits="userSpaceOnUse" color-interpolation-filters="sRGB">
<feFlood flood-opacity="0" result="BackgroundImageFix"/>
<feGaussianBlur in="BackgroundImageFix" stdDeviation="7.5"/>
<feComposite in2="SourceAlpha" operator="in" result="effect1_backgroundBlur_1_1189"/>
<feBlend mode="normal" in="SourceGraphic" in2="effect1_backgroundBlur_1_1189" result="shape"/>
</filter>
<linearGradient id="paint0_linear_1_1189" x1="0" y1="8" x2="48" y2="8" gradientUnits="userSpaceOnUse">
<stop stop-color="#84C4FF"/>
<stop offset="1" stop-color="#5CC4BB"/>
</linearGradient>
<linearGradient id="paint1_linear_1_1189" x1="35" y1="0" x2="35" y2="64" gradientUnits="userSpaceOnUse">
<stop stop-color="#98FFF6"/>
<stop offset="1" stop-color="#5CC4BB"/>
</linearGradient>
<linearGradient id="paint2_linear_1_1189" x1="3" y1="0" x2="67" y2="-4.09149e-07" gradientUnits="userSpaceOnUse">
<stop stop-color="#84C4FF"/>
<stop offset="1" stop-color="#5CC4BB"/>
</linearGradient>
</defs>
</svg>
