<svg width="78" height="64" viewBox="0 0 78 64" fill="none" xmlns="http://www.w3.org/2000/svg">
<g filter="url(#filter0_b_1_1201)">
<path d="M28.2649 19.1419C27.382 19.5236 26.5788 20.0624 25.8657 20.7019C24.2847 22.0994 23.2316 23.9822 22.8462 26.0598C22.6738 26.0737 22.487 26.1168 22.3135 26.152C22.138 26.185 21.7819 26.2004 21.5304 26.2628L20.9267 26.4574C20.5879 26.5368 20.2698 26.6589 19.9473 26.8033C19.9052 26.8023 19.8498 26.8091 19.7851 26.8284L19.7184 26.8882C18.8445 27.2618 18.0425 27.7568 17.311 28.374L17.1867 28.4855C16.8703 28.7692 16.5745 29.0733 16.299 29.404L16.1633 29.5257C15.8643 29.8734 15.5981 30.2549 15.3729 30.6609C12.4079 35.8108 15.0555 41.6984 19.9605 44.5211C22.5377 45.9002 25.3846 46.6947 28.2814 46.8487C32.4106 46.9807 36.5201 46.6816 40.5621 45.9534L41.0209 45.8704L41.1487 45.4478C42.2609 41.5331 42.9543 37.5249 43.22 33.4718C43.3619 30.5925 42.8339 27.698 41.6919 25.0318C39.3195 19.9378 33.6658 16.7462 28.2649 19.1419Z" fill="url(#paint0_linear_1_1201)"/>
</g>
<g opacity="0.5" filter="url(#filter1_f_1_1201)">
<path d="M27.6761 27.8427C27.1189 28.0837 26.6121 28.4236 26.1621 28.8272C25.1644 29.7091 24.4999 30.8972 24.2566 32.2083C24.1478 32.217 24.03 32.2442 23.9205 32.2664C23.8097 32.2873 23.585 32.297 23.4263 32.3363L23.0454 32.4591C22.8316 32.5092 22.6308 32.5863 22.4273 32.6774C22.4007 32.6768 22.3658 32.6811 22.325 32.6932L22.2829 32.731C21.7314 32.9668 21.2253 33.2791 20.7637 33.6686L20.6853 33.7389C20.4856 33.918 20.2989 34.1099 20.1251 34.3186L20.0395 34.3953C19.8508 34.6148 19.6828 34.8555 19.5407 35.1117C17.6697 38.3615 19.3404 42.0768 22.4356 43.8581C24.0619 44.7283 25.8584 45.2297 27.6865 45.3269C30.2922 45.4102 32.8854 45.2215 35.4361 44.7619L35.7256 44.7095L35.8062 44.4428C36.5081 41.9725 36.9456 39.4432 37.1133 36.8855C37.2029 35.0685 36.8697 33.242 36.149 31.5595C34.6519 28.345 31.0843 26.331 27.6761 27.8427Z" fill="#009494"/>
</g>
<g filter="url(#filter2_b_1_1201)">
<path d="M14.3838 18.7227C14.1969 18.8238 14.0306 18.9579 13.8861 19.1125C13.5653 19.4508 13.3701 19.8857 13.3258 20.3506C13.2881 20.357 13.2478 20.3701 13.2103 20.3812C13.1723 20.3918 13.0942 20.4021 13.0401 20.4207L12.911 20.4752C12.838 20.4992 12.7703 20.5322 12.7021 20.5703C12.6929 20.5709 12.6808 20.5734 12.6669 20.5789L12.6534 20.5934C12.4683 20.6925 12.3014 20.817 12.1524 20.967L12.1273 20.994C12.0631 21.0626 12.0039 21.1352 11.9497 21.2134L11.9222 21.2428C11.8632 21.3251 11.812 21.4143 11.7704 21.508C11.218 22.6992 11.9155 23.9445 13.0501 24.4713C13.6443 24.7251 14.2864 24.8451 14.9271 24.8231C15.8386 24.7724 16.7373 24.6272 17.6128 24.3887L17.7122 24.3616L17.7321 24.2661C17.9007 23.3826 17.9752 22.4867 17.9548 21.5891C17.9299 20.9524 17.7573 20.3252 17.454 19.7602C16.8326 18.6844 15.5259 18.0908 14.3838 18.7227Z" fill="url(#paint1_linear_1_1201)"/>
</g>
<g filter="url(#filter3_b_1_1201)">
<mask id="path-4-outside-1_1_1201" maskUnits="userSpaceOnUse" x="20.2765" y="-4.35206" width="62.8052" height="61.7866" fill="black">
<rect fill="white" x="20.2765" y="-4.35206" width="62.8052" height="61.7866"/>
<path d="M72.3497 13.947C71.3953 12.931 70.2621 12.1017 69.0328 11.4453C66.3355 9.97976 63.2212 9.47537 60.1592 9.97879C60.0568 9.75032 59.907 9.51668 59.7746 9.29734C59.6443 9.0741 59.4511 8.59566 59.2435 8.28328L58.683 7.55574C58.4096 7.13271 58.0871 6.75895 57.7316 6.39029C57.7127 6.33235 57.6765 6.2601 57.6187 6.18136L57.5037 6.11998C56.5649 5.11236 55.4929 4.26281 54.2856 3.5703L54.0714 3.45587C53.5259 3.16459 52.9623 2.91148 52.3715 2.69928L52.1377 2.57444C51.5121 2.33857 50.8556 2.16433 50.1849 2.05807C41.6255 0.562917 34.7524 7.09416 33.211 15.1878C32.5451 19.3889 32.8185 23.6684 34.0027 27.6987C35.8118 33.4003 38.2081 38.8613 41.166 44.0176L41.5023 44.6027L42.149 44.5677C48.1045 44.1459 53.9877 43.1062 59.7267 41.4605C63.781 40.2276 67.5331 38.0725 70.6731 35.1926C76.5803 29.4303 78.2714 20.1318 72.3497 13.947Z"/>
</mask>
<path d="M72.3497 13.947C71.3953 12.931 70.2621 12.1017 69.0328 11.4453C66.3355 9.97976 63.2212 9.47537 60.1592 9.97879C60.0568 9.75032 59.907 9.51668 59.7746 9.29734C59.6443 9.0741 59.4511 8.59566 59.2435 8.28328L58.683 7.55574C58.4096 7.13271 58.0871 6.75895 57.7316 6.39029C57.7127 6.33235 57.6765 6.2601 57.6187 6.18136L57.5037 6.11998C56.5649 5.11236 55.4929 4.26281 54.2856 3.5703L54.0714 3.45587C53.5259 3.16459 52.9623 2.91148 52.3715 2.69928L52.1377 2.57444C51.5121 2.33857 50.8556 2.16433 50.1849 2.05807C41.6255 0.562917 34.7524 7.09416 33.211 15.1878C32.5451 19.3889 32.8185 23.6684 34.0027 27.6987C35.8118 33.4003 38.2081 38.8613 41.166 44.0176L41.5023 44.6027L42.149 44.5677C48.1045 44.1459 53.9877 43.1062 59.7267 41.4605C63.781 40.2276 67.5331 38.0725 70.6731 35.1926C76.5803 29.4303 78.2714 20.1318 72.3497 13.947Z" fill="#1BFFFF" fill-opacity="0.35"/>
<path d="M69.0328 11.4453L68.5525 12.3225L68.5589 12.3259L69.0328 11.4453ZM60.1592 9.97879L59.2448 10.3876C59.4301 10.8012 59.8717 11.0379 60.3203 10.9641L60.1592 9.97879ZM59.7746 9.29734L58.9089 9.80093C58.9114 9.80518 58.9139 9.80941 58.9165 9.81362L59.7746 9.29734ZM59.2435 8.28328L60.0785 7.73049C60.0656 7.71117 60.0521 7.69231 60.038 7.67393L59.2435 8.28328ZM58.683 7.55574L57.8409 8.09771C57.8558 8.12081 57.8717 8.14329 57.8885 8.16508L58.683 7.55574ZM57.7316 6.39029L56.7792 6.70039C56.8259 6.84371 56.9045 6.97456 57.0092 7.08314L57.7316 6.39029ZM57.6187 6.18136L58.4269 5.5903C58.3386 5.47008 58.2243 5.37116 58.0926 5.3008L57.6187 6.18136ZM57.5037 6.11998L56.7696 6.80045C56.8446 6.88101 56.9326 6.94862 57.0298 7.00054L57.5037 6.11998ZM54.2856 3.5703L54.7861 2.70443C54.7773 2.6994 54.7685 2.6945 54.7596 2.68974L54.2856 3.5703ZM54.0714 3.45587L53.5974 4.33643L54.0714 3.45587ZM52.3715 2.69928L51.8976 3.57984C51.9404 3.60273 51.9849 3.62247 52.0307 3.6389L52.3715 2.69928ZM52.1377 2.57444L52.6117 1.69389C52.5734 1.67346 52.5339 1.65555 52.4933 1.64025L52.1377 2.57444ZM50.1849 2.05807L50.0104 3.04174C50.0156 3.04265 50.0208 3.04352 50.026 3.04434L50.1849 2.05807ZM33.211 15.1878L32.2272 15.0032C32.2253 15.0133 32.2235 15.0235 32.2219 15.0337L33.211 15.1878ZM34.0027 27.6987L33.0417 27.9811C33.0437 27.988 33.0458 27.9948 33.048 28.0016L34.0027 27.6987ZM41.166 44.0176L40.2966 44.5146L40.297 44.5153L41.166 44.0176ZM41.5023 44.6027L40.6333 45.1005C40.821 45.4272 41.1774 45.6203 41.5548 45.5998L41.5023 44.6027ZM42.149 44.5677L42.2015 45.5648C42.207 45.5645 42.2125 45.5642 42.2181 45.5638L42.149 44.5677ZM59.7267 41.4605L60.0018 42.4202C60.0069 42.4188 60.0121 42.4172 60.0172 42.4157L59.7267 41.4605ZM70.6731 35.1926L71.3502 35.9271C71.3578 35.9202 71.3653 35.9131 71.3727 35.9059L70.6731 35.1926ZM72.3497 13.947L71.6183 14.6305L71.6249 14.6373L72.3497 13.947ZM73.0811 13.2635C72.0425 12.158 70.8186 11.2653 69.5068 10.5647L68.5589 12.3259C69.7056 12.9382 70.7482 13.7041 71.6184 14.6304L73.0811 13.2635ZM69.5131 10.5682C66.6151 8.99354 63.2743 8.45483 59.998 8.99346L60.3203 10.9641C63.1681 10.4959 66.056 10.966 68.5525 12.3224L69.5131 10.5682ZM61.0735 9.56999C60.939 9.26972 60.7421 8.96233 60.6327 8.78107L58.9165 9.81362C59.0719 10.071 59.1746 10.2309 59.2448 10.3876L61.0735 9.56999ZM60.6402 8.79376C60.6006 8.72594 60.5488 8.61255 60.4396 8.38744C60.3492 8.20131 60.2235 7.94867 60.0785 7.73049L58.4086 8.83607C58.4712 8.93028 58.5458 9.07305 58.6365 9.26004C58.7083 9.40806 58.8182 9.64551 58.9089 9.80093L60.6402 8.79376ZM60.038 7.67393L59.4774 6.9464L57.8885 8.16508L58.4491 8.89262L60.038 7.67393ZM59.525 7.01377C59.2033 6.51577 58.8326 6.09012 58.454 5.69744L57.0092 7.08314C57.3415 7.42778 57.616 7.74966 57.8409 8.09771L59.525 7.01377ZM58.684 6.08019C58.6269 5.90492 58.5362 5.73911 58.4269 5.5903L56.8105 6.77242C56.8123 6.77494 56.8097 6.77181 56.8045 6.76193C56.7996 6.75276 56.7896 6.73246 56.7792 6.70039L58.684 6.08019ZM58.0926 5.3008L57.9777 5.23943L57.0298 7.00054L57.1447 7.06192L58.0926 5.3008ZM58.2379 5.43952C57.2303 4.35813 56.0793 3.44629 54.7861 2.70443L53.7852 4.43616C54.9064 5.07934 55.8995 5.8666 56.7696 6.80045L58.2379 5.43952ZM54.7596 2.68974L54.5453 2.57531L53.5974 4.33643L53.8117 4.45086L54.7596 2.68974ZM54.5453 2.57531C53.9593 2.26239 53.3513 1.98916 52.7123 1.75966L52.0307 3.6389C52.5733 3.83379 53.0925 4.06678 53.5974 4.33643L54.5453 2.57531ZM52.8454 1.81872L52.6117 1.69389L51.6638 3.455L51.8976 3.57984L52.8454 1.81872ZM52.4933 1.64025C51.804 1.38037 51.0815 1.18869 50.3437 1.0718L50.026 3.04434C50.6296 3.13996 51.2202 3.29678 51.7822 3.50864L52.4933 1.64025ZM50.3594 1.0744C41.1088 -0.541489 33.8397 6.53679 32.2272 15.0032L34.1947 15.3725C35.6652 7.65153 42.1422 1.66732 50.0104 3.04174L50.3594 1.0744ZM32.2219 15.0337C31.5331 19.3794 31.8156 23.8081 33.0417 27.9811L34.9637 27.4163C33.8215 23.5288 33.5571 19.3984 34.2 15.342L32.2219 15.0337ZM33.048 28.0016C34.8784 33.7702 37.3031 39.2963 40.2966 44.5146L42.0354 43.5205C39.1131 38.4262 36.7453 33.0304 34.9575 27.3959L33.048 28.0016ZM40.297 44.5153L40.6333 45.1005L42.3713 44.1049L42.035 43.5198L40.297 44.5153ZM41.5548 45.5998L42.2015 45.5648L42.0965 43.5705L41.4498 43.6055L41.5548 45.5998ZM42.2181 45.5638C48.2434 45.1371 54.1956 44.0852 60.0018 42.4202L59.4516 40.5008C53.7799 42.1272 47.9657 43.1548 42.0798 43.5715L42.2181 45.5638ZM60.0172 42.4157C64.2175 41.1383 68.1013 38.907 71.3502 35.9271L69.996 34.4582C66.965 37.2381 63.3444 39.3168 59.4362 40.5054L60.0172 42.4157ZM71.3727 35.9059C77.5437 29.8862 79.4875 19.9546 73.0745 13.2567L71.6249 14.6373C77.0553 20.309 75.6169 28.9744 69.9736 34.4794L71.3727 35.9059Z" fill="url(#paint2_linear_1_1201)" mask="url(#path-4-outside-1_1_1201)"/>
</g>
<defs>
<filter id="filter0_b_1_1201" x="1.12756" y="5.33063" width="55.1151" height="54.5484" filterUnits="userSpaceOnUse" color-interpolation-filters="sRGB">
<feFlood flood-opacity="0" result="BackgroundImageFix"/>
<feGaussianBlur in="BackgroundImageFix" stdDeviation="6.5"/>
<feComposite in2="SourceAlpha" operator="in" result="effect1_backgroundBlur_1_1201"/>
<feBlend mode="normal" in="SourceGraphic" in2="effect1_backgroundBlur_1_1201" result="shape"/>
</filter>
<filter id="filter1_f_1_1201" x="0.754822" y="9.33081" width="54.3728" height="54.0152" filterUnits="userSpaceOnUse" color-interpolation-filters="sRGB">
<feFlood flood-opacity="0" result="BackgroundImageFix"/>
<feBlend mode="normal" in="SourceGraphic" in2="BackgroundImageFix" result="shape"/>
<feGaussianBlur stdDeviation="9" result="effect1_foregroundBlur_1_1201"/>
</filter>
<filter id="filter2_b_1_1201" x="-1.42261" y="5.46381" width="32.3807" height="32.3618" filterUnits="userSpaceOnUse" color-interpolation-filters="sRGB">
<feFlood flood-opacity="0" result="BackgroundImageFix"/>
<feGaussianBlur in="BackgroundImageFix" stdDeviation="6.5"/>
<feComposite in2="SourceAlpha" operator="in" result="effect1_backgroundBlur_1_1201"/>
<feBlend mode="normal" in="SourceGraphic" in2="effect1_backgroundBlur_1_1201" result="shape"/>
</filter>
<filter id="filter3_b_1_1201" x="7.85431" y="-23.1571" width="93.1858" height="92.7584" filterUnits="userSpaceOnUse" color-interpolation-filters="sRGB">
<feFlood flood-opacity="0" result="BackgroundImageFix"/>
<feGaussianBlur in="BackgroundImageFix" stdDeviation="12"/>
<feComposite in2="SourceAlpha" operator="in" result="effect1_backgroundBlur_1_1201"/>
<feBlend mode="normal" in="SourceGraphic" in2="effect1_backgroundBlur_1_1201" result="shape"/>
</filter>
<linearGradient id="paint0_linear_1_1201" x1="34.215" y1="35.1864" x2="23.9169" y2="62.5766" gradientUnits="userSpaceOnUse">
<stop stop-color="#1BFFFF"/>
<stop offset="1" stop-color="#07FFFF"/>
</linearGradient>
<linearGradient id="paint1_linear_1_1201" x1="16.0055" y1="22.1407" x2="14.2655" y2="28.3705" gradientUnits="userSpaceOnUse">
<stop stop-color="#1BFFFF"/>
<stop offset="1"/>
</linearGradient>
<linearGradient id="paint2_linear_1_1201" x1="42.0537" y1="-3" x2="80.9246" y2="17.976" gradientUnits="userSpaceOnUse">
<stop stop-color="#84C4FF"/>
<stop offset="1" stop-color="#5CC4BB"/>
</linearGradient>
</defs>
</svg>
