<svg width="16" height="16" viewBox="0 0 16 16" fill="none" xmlns="http://www.w3.org/2000/svg">
<g clip-path="url(#clip0_1_1039)">
<path d="M15.414 6.04603L10.3573 0.9887C9.7315 0.364692 8.88378 0.0142822 8.00001 0.0142822C7.11623 0.0142822 6.26851 0.364692 5.64267 0.9887L0.586008 6.04603C0.399625 6.23122 0.251855 6.45157 0.151263 6.69429C0.0506715 6.93701 -0.000740267 7.19729 8.05299e-06 7.46003V14.0047C8.05299e-06 14.5351 0.210722 15.0438 0.585795 15.4189C0.960867 15.794 1.46958 16.0047 2.00001 16.0047H14C14.5304 16.0047 15.0391 15.794 15.4142 15.4189C15.7893 15.0438 16 14.5351 16 14.0047V7.46003C16.0008 7.19729 15.9493 6.93701 15.8488 6.69429C15.7482 6.45157 15.6004 6.23122 15.414 6.04603ZM10 14.6714H6.00001C6.00001 14.1409 6.21072 13.8751 6.58579 13.5C6.96087 13.1249 7.46958 12.9142 8.00001 12.9142C8.53044 12.9142 9.03915 13.1249 9.41422 13.5C9.7893 13.8751 10 14.1409 10 14.6714ZM14.6667 14.0047C14.6667 14.1815 14.5964 14.3511 14.4714 14.4761C14.3464 14.6011 14.1768 14.6714 14 14.6714H11.3333C11.3333 13.7873 10.9822 13.1823 10.357 12.5572C9.73191 11.9321 8.88406 11.5809 8.00001 11.5809C7.11595 11.5809 6.26811 11.9321 5.64299 12.5572C5.01786 13.1823 4.66667 13.7873 4.66667 14.6714H2.00001C1.8232 14.6714 1.65363 14.6011 1.5286 14.4761C1.40358 14.3511 1.33334 14.1815 1.33334 14.0047V7.46003C1.33396 7.28335 1.40413 7.11402 1.52867 6.9887L6.58534 1.93337C6.96114 1.55932 7.46979 1.34933 8.00001 1.34933C8.53023 1.34933 9.03887 1.55932 9.41467 1.93337L14.4713 6.9907C14.5954 7.11553 14.6655 7.28405 14.6667 7.46003V14.0047Z" fill="url(#paint0_linear_1_1039)"/>
</g>
<defs>
<linearGradient id="paint0_linear_1_1039" x1="0" y1="0.0142822" x2="16" y2="0.0142821" gradientUnits="userSpaceOnUse">
<stop stop-color="#84C4FF"/>
<stop offset="1" stop-color="#5CC4BB"/>
</linearGradient>
<clipPath id="clip0_1_1039">
<rect width="16" height="16" fill="white"/>
</clipPath>
</defs>
</svg>
