<svg width="10" height="12" viewBox="0 0 10 12" fill="none" xmlns="http://www.w3.org/2000/svg">
<mask id="path-1-inside-1_315_639" fill="white">
<path d="M8.70172 4.06202C7.89467 3.27187 7.83162 3.18544 7.83162 3.18544L4.67911 6.29668L1.4131 3.1731C-0.226209 4.33364 -0.402752 6.93868 0.694323 8.0128C1.7914 9.08691 4.69171 11.8525 4.69171 11.8525L8.33602 8.28441C9.59703 7.06214 9.59703 4.9386 8.70172 4.06202ZM7.85683 7.8276L4.69171 10.9265C3.82162 10.0993 1.99315 8.34614 1.18611 7.54364C0.833029 7.19795 0.643883 6.53126 0.694323 5.81518C0.744764 5.14848 1.00958 4.54352 1.40049 4.08671L4.60345 7.2103L7.83162 4.12375C7.94511 4.23487 8.08382 4.37067 8.23514 4.51883C8.8152 5.11145 8.89086 6.81522 7.85683 7.8276Z"/>
</mask>
<path d="M8.70172 4.06202C7.89467 3.27187 7.83162 3.18544 7.83162 3.18544L4.67911 6.29668L1.4131 3.1731C-0.226209 4.33364 -0.402752 6.93868 0.694323 8.0128C1.7914 9.08691 4.69171 11.8525 4.69171 11.8525L8.33602 8.28441C9.59703 7.06214 9.59703 4.9386 8.70172 4.06202ZM7.85683 7.8276L4.69171 10.9265C3.82162 10.0993 1.99315 8.34614 1.18611 7.54364C0.833029 7.19795 0.643883 6.53126 0.694323 5.81518C0.744764 5.14848 1.00958 4.54352 1.40049 4.08671L4.60345 7.2103L7.83162 4.12375C7.94511 4.23487 8.08382 4.37067 8.23514 4.51883C8.8152 5.11145 8.89086 6.81522 7.85683 7.8276Z" fill="white"/>
<path d="M7.83162 3.18544L8.63946 2.59604L7.95533 1.65836L7.12919 2.47369L7.83162 3.18544ZM4.67911 6.29668L3.98793 7.01937L4.69005 7.69087L5.38154 7.00843L4.67911 6.29668ZM1.4131 3.1731L2.10427 2.45041L1.50833 1.88045L0.835292 2.35692L1.4131 3.1731ZM4.69171 11.8525L4.00162 12.5762L4.7009 13.243L5.3913 12.567L4.69171 11.8525ZM8.33602 8.28441L7.64002 7.56636L7.63643 7.56987L8.33602 8.28441ZM7.85683 7.8276L7.15724 7.11306L7.15724 7.11306L7.85683 7.8276ZM4.69171 10.9265L4.0027 11.6512L4.70192 12.316L5.3913 11.641L4.69171 10.9265ZM1.18611 7.54364L1.89124 6.83452L1.8857 6.8291L1.18611 7.54364ZM0.694323 5.81518L-0.30284 5.73973L-0.303205 5.74491L0.694323 5.81518ZM1.40049 4.08671L2.09867 3.37079L1.33461 2.62566L0.64071 3.43653L1.40049 4.08671ZM4.60345 7.2103L3.90527 7.92622L4.59658 8.6004L5.29452 7.93308L4.60345 7.2103ZM7.83162 4.12375L8.53121 3.40921L7.83987 2.73233L7.14055 3.40097L7.83162 4.12375ZM8.23514 4.51883L8.94977 3.81933L8.94233 3.81173L8.93473 3.80429L8.23514 4.51883ZM9.40131 3.34748C9.00045 2.95501 8.79 2.74281 8.68218 2.63153C8.62811 2.57574 8.60345 2.54903 8.59525 2.53997C8.59124 2.53555 8.59362 2.53804 8.59978 2.54533C8.60297 2.54912 8.608 2.55515 8.61425 2.56299C8.61743 2.56696 8.62114 2.57169 8.62527 2.57707C8.62735 2.57978 8.62957 2.58271 8.63192 2.58585C8.6331 2.58742 8.63432 2.58906 8.63558 2.59075C8.6362 2.5916 8.63684 2.59247 8.63749 2.59335C8.63781 2.59379 8.6383 2.59446 8.63847 2.59468C8.63897 2.59536 8.63946 2.59604 7.83162 3.18544C7.02378 3.77484 7.02427 3.77552 7.02477 3.7762C7.02494 3.77643 7.02543 3.7771 7.02576 3.77754C7.02641 3.77843 7.02705 3.7793 7.02769 3.78016C7.02896 3.78188 7.0302 3.78355 7.03141 3.78517C7.03383 3.7884 7.03616 3.79146 7.03838 3.79436C7.0428 3.80012 7.04697 3.80542 7.0508 3.81023C7.05837 3.81971 7.06554 3.82838 7.07203 3.83607C7.08479 3.85117 7.0984 3.86659 7.11292 3.88261C7.14176 3.91445 7.1833 3.95873 7.24588 4.02331C7.37134 4.15279 7.59594 4.37888 8.00213 4.77656L9.40131 3.34748ZM7.12919 2.47369L3.97667 5.58493L5.38154 7.00843L8.53405 3.89719L7.12919 2.47369ZM5.37028 5.57399L2.10427 2.45041L0.721925 3.89578L3.98793 7.01937L5.37028 5.57399ZM0.835292 2.35692C-0.260923 3.13298 -0.827012 4.35624 -0.965279 5.50595C-1.10032 6.62883 -0.847803 7.90244 -0.00526751 8.72734L1.39391 7.29825C1.13937 7.04904 0.931623 6.48306 1.02041 5.74476C1.10598 5.03328 1.44781 4.37375 1.9909 3.98927L0.835292 2.35692ZM-0.00526751 8.72734C0.547925 9.26896 1.55136 10.2328 2.41279 11.0577C2.84431 11.4709 3.24146 11.8505 3.53073 12.1267C3.67537 12.2649 3.79306 12.3772 3.8746 12.455C3.91537 12.4939 3.94711 12.5242 3.96866 12.5447C3.97944 12.555 3.98767 12.5629 3.99321 12.5682C3.99598 12.5708 3.99808 12.5728 3.99949 12.5741C4.00019 12.5748 4.00072 12.5753 4.00108 12.5757C4.00126 12.5758 4.00139 12.576 4.00148 12.576C4.00153 12.5761 4.00156 12.5761 4.00158 12.5761C4.00161 12.5762 4.00162 12.5762 4.69171 11.8525C5.3818 11.1287 5.3818 11.1287 5.38178 11.1287C5.38175 11.1287 5.38172 11.1287 5.38168 11.1286C5.38159 11.1285 5.38146 11.1284 5.38129 11.1282C5.38094 11.1279 5.38042 11.1274 5.37973 11.1268C5.37834 11.1254 5.37626 11.1234 5.37351 11.1208C5.36801 11.1156 5.35982 11.1078 5.34909 11.0975C5.32762 11.0771 5.29597 11.0469 5.25529 11.008C5.17394 10.9304 5.05647 10.8183 4.91206 10.6804C4.62324 10.4045 4.22675 10.0256 3.79605 9.61317C2.93306 8.78677 1.9378 7.83075 1.39391 7.29825L-0.00526751 8.72734ZM5.3913 12.567L9.03561 8.99896L7.63643 7.56987L3.99212 11.1379L5.3913 12.567ZM9.03202 9.00246C9.87 8.19022 10.2681 7.10364 10.3258 6.10111C10.382 5.12566 10.1209 4.05201 9.40131 3.34748L8.00213 4.77656C8.17785 4.94861 8.36436 5.37502 8.32915 5.98605C8.2955 6.57001 8.06305 7.15634 7.64003 7.56636L9.03202 9.00246ZM7.15724 7.11306L3.99212 10.212L5.3913 11.641L8.55643 8.54215L7.15724 7.11306ZM5.38073 10.2017C4.51033 9.37427 2.68935 7.62818 1.89122 6.83454L0.481003 8.25274C1.29696 9.0641 3.13291 10.8243 4.0027 11.6512L5.38073 10.2017ZM1.8857 6.8291C1.82387 6.76857 1.65235 6.44617 1.69185 5.88544L-0.303205 5.74491C-0.364588 6.61634 -0.157816 7.62733 0.48652 8.25819L1.8857 6.8291ZM1.69147 5.89062C1.7256 5.43956 1.90512 5.03506 2.16027 4.73689L0.64071 3.43653C0.114042 4.05198 -0.236072 4.8574 -0.302827 5.73974L1.69147 5.89062ZM0.702311 4.80263L3.90527 7.92622L5.30163 6.49437L2.09867 3.37079L0.702311 4.80263ZM5.29452 7.93308L8.52269 4.84654L7.14055 3.40097L3.91237 6.48751L5.29452 7.93308ZM7.13203 4.8383C7.18877 4.89385 7.25181 4.95558 7.31959 5.02194C7.38737 5.0883 7.45988 5.15929 7.53555 5.23337L8.93473 3.80429C8.85907 3.73021 8.78657 3.65922 8.71879 3.59286C8.65101 3.52651 8.58796 3.46477 8.53121 3.40921L7.13203 4.8383ZM7.5205 5.21833C7.51385 5.21153 7.56076 5.26163 7.60321 5.41317C7.64309 5.55558 7.66589 5.74346 7.65309 5.95554C7.62709 6.38617 7.46324 6.81346 7.15724 7.11306L8.55643 8.54215C9.28445 7.82936 9.59979 6.89857 9.64945 6.07607C9.69622 5.30149 9.51496 4.39675 8.94977 3.81933L7.5205 5.21833Z" fill="#DDB152" mask="url(#path-1-inside-1_315_639)"/>
<mask id="path-3-inside-2_315_639" fill="white">
<path d="M1.9427 6.80281C1.86704 6.72873 1.72834 6.42008 1.76617 5.93858L4.38906 8.42016V7.43246L1.4383 4.62988C1.22393 4.97558 1.08522 5.39535 1.04739 5.83981C0.996951 6.44477 1.14827 7.0127 1.42569 7.28431C2.09403 7.93866 3.46853 9.27205 4.37645 10.1363V9.14858C3.51897 8.34608 2.49755 7.34604 1.9427 6.80281Z"/>
</mask>
<path d="M1.9427 6.80281C1.86704 6.72873 1.72834 6.42008 1.76617 5.93858L4.38906 8.42016V7.43246L1.4383 4.62988C1.22393 4.97558 1.08522 5.39535 1.04739 5.83981C0.996951 6.44477 1.14827 7.0127 1.42569 7.28431C2.09403 7.93866 3.46853 9.27205 4.37645 10.1363V9.14858C3.51897 8.34608 2.49755 7.34604 1.9427 6.80281Z" fill="white"/>
<path d="M1.76617 5.93858L2.45344 5.21217L0.933173 3.7738L0.769246 5.86025L1.76617 5.93858ZM4.38906 8.42016L3.70179 9.14656L5.38906 10.7429V8.42016H4.38906ZM4.38906 7.43246H5.38906V7.00309L5.07772 6.70739L4.38906 7.43246ZM1.4383 4.62988L2.12697 3.90481L1.23602 3.0586L0.588443 4.10287L1.4383 4.62988ZM1.04739 5.83981L0.0509927 5.755L0.0508494 5.75672L1.04739 5.83981ZM4.37645 10.1363L3.68699 10.8606L5.37645 12.4688V10.1363H4.37645ZM4.37645 9.14858H5.37645V8.71484L5.05976 8.41846L4.37645 9.14858ZM2.64229 6.08827C2.67139 6.11675 2.69325 6.14219 2.70842 6.16113C2.72394 6.18052 2.7358 6.19729 2.74436 6.21016C2.76114 6.23537 2.77082 6.25394 2.77525 6.26295C2.78402 6.28079 2.78246 6.28199 2.77761 6.26393C2.76836 6.22953 2.75293 6.14635 2.7631 6.0169L0.769246 5.86025C0.741586 6.21231 0.776589 6.52421 0.84615 6.78303C0.90266 6.99329 1.01562 7.29462 1.24311 7.51735L2.64229 6.08827ZM1.0789 6.66498L3.70179 9.14656L5.07633 7.69376L2.45344 5.21217L1.0789 6.66498ZM5.38906 8.42016V7.43246H3.38906V8.42016H5.38906ZM5.07772 6.70739L2.12697 3.90481L0.749633 5.35496L3.70039 8.15754L5.07772 6.70739ZM0.588443 4.10287C0.286965 4.58903 0.101497 5.16165 0.0509942 5.755L2.04379 5.92462C2.06895 5.62904 2.16089 5.36212 2.28816 5.1569L0.588443 4.10287ZM0.0508494 5.75672C0.0169882 6.16284 0.0489724 6.5709 0.146524 6.94157C0.240526 7.29876 0.415388 7.69464 0.726102 7.99885L2.12528 6.56977C2.15858 6.60236 2.11907 6.57848 2.08066 6.43256C2.04581 6.30012 2.02735 6.12174 2.04393 5.9229L0.0508494 5.75672ZM0.726102 7.99885C1.39658 8.6553 2.77462 9.99214 3.68699 10.8606L5.06591 9.41196C4.16243 8.55195 2.79148 7.22202 2.12528 6.56977L0.726102 7.99885ZM5.37645 10.1363V9.14858H3.37645V10.1363H5.37645ZM5.05976 8.41846C4.21194 7.625 3.19866 6.63299 2.64229 6.08827L1.24311 7.51735C1.79643 8.05909 2.82599 9.06717 3.69314 9.87871L5.05976 8.41846Z" fill="#DDB152" mask="url(#path-3-inside-2_315_639)"/>
<mask id="path-5-inside-3_315_639" fill="white">
<path d="M8.2856 5.82746C8.2856 5.87685 8.2856 5.93858 8.2856 6.00031C8.26038 6.35835 8.14689 7.03739 7.60466 7.58062L4.95654 10.161V9.17328L5.96535 8.18558L5.97795 7.40777L4.95654 8.42016V7.44481L7.81904 4.62988C7.86948 4.67927 7.91991 4.72865 7.97035 4.77804C8.05862 4.86446 8.13429 5.00027 8.19734 5.19781L7.26419 6.13612L6.45714 6.93862L6.44454 7.72877L7.10025 7.08677C7.12547 7.06208 7.15069 7.03739 7.1633 7.0127L8.2856 5.82746Z"/>
</mask>
<path d="M8.2856 5.82746C8.2856 5.87685 8.2856 5.93858 8.2856 6.00031C8.26038 6.35835 8.14689 7.03739 7.60466 7.58062L4.95654 10.161V9.17328L5.96535 8.18558L5.97795 7.40777L4.95654 8.42016V7.44481L7.81904 4.62988C7.86948 4.67927 7.91991 4.72865 7.97035 4.77804C8.05862 4.86446 8.13429 5.00027 8.19734 5.19781L7.26419 6.13612L6.45714 6.93862L6.44454 7.72877L7.10025 7.08677C7.12547 7.06208 7.15069 7.03739 7.1633 7.0127L8.2856 5.82746Z" fill="white"/>
<path d="M8.2856 5.82746H9.2856V3.31698L7.55948 5.1399L8.2856 5.82746ZM8.2856 6.00031L9.28313 6.07057L9.2856 6.03548V6.00031H8.2856ZM7.60466 7.58062L8.30261 8.2969L8.31241 8.28707L7.60466 7.58062ZM4.95654 10.161H3.95654V12.5316L5.65443 10.8772L4.95654 10.161ZM4.95654 9.17328L4.25695 8.45873L3.95654 8.75285V9.17328H4.95654ZM5.96535 8.18558L6.66494 8.90013L6.95856 8.61265L6.96522 8.20179L5.96535 8.18558ZM5.97795 7.40777L6.97782 7.42398L7.01761 4.96933L5.27399 6.69753L5.97795 7.40777ZM4.95654 8.42016H3.95654V10.8193L5.6605 9.1304L4.95654 8.42016ZM4.95654 7.44481L4.25538 6.73181L3.95654 7.02568V7.44481H4.95654ZM7.81904 4.62988L8.51863 3.91534L7.8175 3.22888L7.11788 3.91688L7.81904 4.62988ZM8.19734 5.19781L8.90639 5.90296L9.33466 5.47232L9.14999 4.89374L8.19734 5.19781ZM7.26419 6.13612L7.96931 6.84523L7.97324 6.84127L7.26419 6.13612ZM6.45714 6.93862L5.75204 6.22952L5.46376 6.51617L5.45727 6.92266L6.45714 6.93862ZM6.44454 7.72877L5.44466 7.71282L5.40585 10.1452L7.14413 8.44331L6.44454 7.72877ZM7.10025 7.08677L6.40066 6.37223L6.40066 6.37223L7.10025 7.08677ZM7.1633 7.0127L6.43718 6.32513L6.33819 6.42967L6.27272 6.55788L7.1633 7.0127ZM7.2856 5.82746C7.2856 5.82756 7.2856 5.82765 7.2856 5.82775C7.2856 5.82785 7.2856 5.82794 7.2856 5.82804C7.2856 5.82814 7.2856 5.82823 7.2856 5.82833C7.2856 5.82843 7.2856 5.82852 7.2856 5.82862C7.2856 5.82872 7.2856 5.82881 7.2856 5.82891C7.2856 5.82901 7.2856 5.82911 7.2856 5.8292C7.2856 5.8293 7.2856 5.8294 7.2856 5.82949C7.2856 5.82959 7.2856 5.82969 7.2856 5.82979C7.2856 5.82988 7.2856 5.82998 7.2856 5.83008C7.2856 5.83017 7.2856 5.83027 7.2856 5.83037C7.2856 5.83047 7.2856 5.83056 7.2856 5.83066C7.2856 5.83076 7.2856 5.83086 7.2856 5.83095C7.2856 5.83105 7.2856 5.83115 7.2856 5.83125C7.2856 5.83134 7.2856 5.83144 7.2856 5.83154C7.2856 5.83164 7.2856 5.83174 7.2856 5.83183C7.2856 5.83193 7.2856 5.83203 7.2856 5.83213C7.2856 5.83222 7.2856 5.83232 7.2856 5.83242C7.2856 5.83252 7.2856 5.83262 7.2856 5.83272C7.2856 5.83281 7.2856 5.83291 7.2856 5.83301C7.2856 5.83311 7.2856 5.83321 7.2856 5.8333C7.2856 5.8334 7.2856 5.8335 7.2856 5.8336C7.2856 5.8337 7.2856 5.8338 7.2856 5.83389C7.2856 5.83399 7.2856 5.83409 7.2856 5.83419C7.2856 5.83429 7.2856 5.83439 7.2856 5.83449C7.2856 5.83458 7.2856 5.83468 7.2856 5.83478C7.2856 5.83488 7.2856 5.83498 7.2856 5.83508C7.2856 5.83518 7.2856 5.83528 7.2856 5.83538C7.2856 5.83547 7.2856 5.83557 7.2856 5.83567C7.2856 5.83577 7.2856 5.83587 7.2856 5.83597C7.2856 5.83607 7.2856 5.83617 7.2856 5.83627C7.2856 5.83637 7.2856 5.83647 7.2856 5.83656C7.2856 5.83666 7.2856 5.83676 7.2856 5.83686C7.2856 5.83696 7.2856 5.83706 7.2856 5.83716C7.2856 5.83726 7.2856 5.83736 7.2856 5.83746C7.2856 5.83756 7.2856 5.83766 7.2856 5.83776C7.2856 5.83786 7.2856 5.83796 7.2856 5.83806C7.2856 5.83816 7.2856 5.83826 7.2856 5.83836C7.2856 5.83846 7.2856 5.83856 7.2856 5.83866C7.2856 5.83876 7.2856 5.83886 7.2856 5.83896C7.2856 5.83906 7.2856 5.83916 7.2856 5.83926C7.2856 5.83936 7.2856 5.83946 7.2856 5.83956C7.2856 5.83966 7.2856 5.83976 7.2856 5.83986C7.2856 5.83996 7.2856 5.84006 7.2856 5.84016C7.2856 5.84026 7.2856 5.84036 7.2856 5.84046C7.2856 5.84056 7.2856 5.84066 7.2856 5.84076C7.2856 5.84086 7.2856 5.84096 7.2856 5.84106C7.2856 5.84116 7.2856 5.84126 7.2856 5.84136C7.2856 5.84146 7.2856 5.84157 7.2856 5.84167C7.2856 5.84177 7.2856 5.84187 7.2856 5.84197C7.2856 5.84207 7.2856 5.84217 7.2856 5.84227C7.2856 5.84237 7.2856 5.84247 7.2856 5.84257C7.2856 5.84268 7.2856 5.84278 7.2856 5.84288C7.2856 5.84298 7.2856 5.84308 7.2856 5.84318C7.2856 5.84328 7.2856 5.84338 7.2856 5.84348C7.2856 5.84359 7.2856 5.84369 7.2856 5.84379C7.2856 5.84389 7.2856 5.84399 7.2856 5.84409C7.2856 5.84419 7.2856 5.8443 7.2856 5.8444C7.2856 5.8445 7.2856 5.8446 7.2856 5.8447C7.2856 5.8448 7.2856 5.84491 7.2856 5.84501C7.2856 5.84511 7.2856 5.84521 7.2856 5.84531C7.2856 5.84541 7.2856 5.84552 7.2856 5.84562C7.2856 5.84572 7.2856 5.84582 7.2856 5.84592C7.2856 5.84603 7.2856 5.84613 7.2856 5.84623C7.2856 5.84633 7.2856 5.84643 7.2856 5.84654C7.2856 5.84664 7.2856 5.84674 7.2856 5.84684C7.2856 5.84694 7.2856 5.84705 7.2856 5.84715C7.2856 5.84725 7.2856 5.84735 7.2856 5.84746C7.2856 5.84756 7.2856 5.84766 7.2856 5.84776C7.2856 5.84786 7.2856 5.84797 7.2856 5.84807C7.2856 5.84817 7.2856 5.84828 7.2856 5.84838C7.2856 5.84848 7.2856 5.84858 7.2856 5.84869C7.2856 5.84879 7.2856 5.84889 7.2856 5.84899C7.2856 5.8491 7.2856 5.8492 7.2856 5.8493C7.2856 5.8494 7.2856 5.84951 7.2856 5.84961C7.2856 5.84971 7.2856 5.84982 7.2856 5.84992C7.2856 5.85002 7.2856 5.85013 7.2856 5.85023C7.2856 5.85033 7.2856 5.85044 7.2856 5.85054C7.2856 5.85064 7.2856 5.85074 7.2856 5.85085C7.2856 5.85095 7.2856 5.85105 7.2856 5.85116C7.2856 5.85126 7.2856 5.85136 7.2856 5.85147C7.2856 5.85157 7.2856 5.85167 7.2856 5.85178C7.2856 5.85188 7.2856 5.85198 7.2856 5.85209C7.2856 5.85219 7.2856 5.8523 7.2856 5.8524C7.2856 5.8525 7.2856 5.85261 7.2856 5.85271C7.2856 5.85281 7.2856 5.85292 7.2856 5.85302C7.2856 5.85313 7.2856 5.85323 7.2856 5.85333C7.2856 5.85344 7.2856 5.85354 7.2856 5.85364C7.2856 5.85375 7.2856 5.85385 7.2856 5.85396C7.2856 5.85406 7.2856 5.85416 7.2856 5.85427C7.2856 5.85437 7.2856 5.85448 7.2856 5.85458C7.2856 5.85469 7.2856 5.85479 7.2856 5.85489C7.2856 5.855 7.2856 5.8551 7.2856 5.85521C7.2856 5.85531 7.2856 5.85542 7.2856 5.85552C7.2856 5.85562 7.2856 5.85573 7.2856 5.85583C7.2856 5.85594 7.2856 5.85604 7.2856 5.85615C7.2856 5.85625 7.2856 5.85636 7.2856 5.85646C7.2856 5.85657 7.2856 5.85667 7.2856 5.85678C7.2856 5.85688 7.2856 5.85698 7.2856 5.85709C7.2856 5.85719 7.2856 5.8573 7.2856 5.8574C7.2856 5.85751 7.2856 5.85761 7.2856 5.85772C7.2856 5.85782 7.2856 5.85793 7.2856 5.85803C7.2856 5.85814 7.2856 5.85824 7.2856 5.85835C7.2856 5.85845 7.2856 5.85856 7.2856 5.85866C7.2856 5.85877 7.2856 5.85887 7.2856 5.85898C7.2856 5.85909 7.2856 5.85919 7.2856 5.8593C7.2856 5.8594 7.2856 5.85951 7.2856 5.85961C7.2856 5.85972 7.2856 5.85982 7.2856 5.85993C7.2856 5.86003 7.2856 5.86014 7.2856 5.86024C7.2856 5.86035 7.2856 5.86046 7.2856 5.86056C7.2856 5.86067 7.2856 5.86077 7.2856 5.86088C7.2856 5.86098 7.2856 5.86109 7.2856 5.8612C7.2856 5.8613 7.2856 5.86141 7.2856 5.86151C7.2856 5.86162 7.2856 5.86172 7.2856 5.86183C7.2856 5.86194 7.2856 5.86204 7.2856 5.86215C7.2856 5.86225 7.2856 5.86236 7.2856 5.86247C7.2856 5.86257 7.2856 5.86268 7.2856 5.86279C7.2856 5.86289 7.2856 5.863 7.2856 5.8631C7.2856 5.86321 7.2856 5.86332 7.2856 5.86342C7.2856 5.86353 7.2856 5.86364 7.2856 5.86374C7.2856 5.86385 7.2856 5.86395 7.2856 5.86406C7.2856 5.86417 7.2856 5.86427 7.2856 5.86438C7.2856 5.86449 7.2856 5.86459 7.2856 5.8647C7.2856 5.86481 7.2856 5.86491 7.2856 5.86502C7.2856 5.86513 7.2856 5.86523 7.2856 5.86534C7.2856 5.86545 7.2856 5.86555 7.2856 5.86566C7.2856 5.86577 7.2856 5.86587 7.2856 5.86598C7.2856 5.86609 7.2856 5.86619 7.2856 5.8663C7.2856 5.86641 7.2856 5.86652 7.2856 5.86662C7.2856 5.86673 7.2856 5.86684 7.2856 5.86694C7.2856 5.86705 7.2856 5.86716 7.2856 5.86726C7.2856 5.86737 7.2856 5.86748 7.2856 5.86759C7.2856 5.86769 7.2856 5.8678 7.2856 5.86791C7.2856 5.86802 7.2856 5.86812 7.2856 5.86823C7.2856 5.86834 7.2856 5.86844 7.2856 5.86855C7.2856 5.86866 7.2856 5.86877 7.2856 5.86887C7.2856 5.86898 7.2856 5.86909 7.2856 5.8692C7.2856 5.8693 7.2856 5.86941 7.2856 5.86952C7.2856 5.86963 7.2856 5.86973 7.2856 5.86984C7.2856 5.86995 7.2856 5.87006 7.2856 5.87017C7.2856 5.87027 7.2856 5.87038 7.2856 5.87049C7.2856 5.8706 7.2856 5.87071 7.2856 5.87081C7.2856 5.87092 7.2856 5.87103 7.2856 5.87114C7.2856 5.87124 7.2856 5.87135 7.2856 5.87146C7.2856 5.87157 7.2856 5.87168 7.2856 5.87178C7.2856 5.87189 7.2856 5.872 7.2856 5.87211C7.2856 5.87222 7.2856 5.87233 7.2856 5.87243C7.2856 5.87254 7.2856 5.87265 7.2856 5.87276C7.2856 5.87287 7.2856 5.87298 7.2856 5.87308C7.2856 5.87319 7.2856 5.8733 7.2856 5.87341C7.2856 5.87352 7.2856 5.87363 7.2856 5.87373C7.2856 5.87384 7.2856 5.87395 7.2856 5.87406C7.2856 5.87417 7.2856 5.87428 7.2856 5.87439C7.2856 5.87449 7.2856 5.8746 7.2856 5.87471C7.2856 5.87482 7.2856 5.87493 7.2856 5.87504C7.2856 5.87515 7.2856 5.87526 7.2856 5.87536C7.2856 5.87547 7.2856 5.87558 7.2856 5.87569C7.2856 5.8758 7.2856 5.87591 7.2856 5.87602C7.2856 5.87613 7.2856 5.87624 7.2856 5.87635C7.2856 5.87645 7.2856 5.87656 7.2856 5.87667C7.2856 5.87678 7.2856 5.87689 7.2856 5.877C7.2856 5.87711 7.2856 5.87722 7.2856 5.87733C7.2856 5.87744 7.2856 5.87755 7.2856 5.87766C7.2856 5.87776 7.2856 5.87787 7.2856 5.87798C7.2856 5.87809 7.2856 5.8782 7.2856 5.87831C7.2856 5.87842 7.2856 5.87853 7.2856 5.87864C7.2856 5.87875 7.2856 5.87886 7.2856 5.87897C7.2856 5.87908 7.2856 5.87919 7.2856 5.8793C7.2856 5.87941 7.2856 5.87952 7.2856 5.87963C7.2856 5.87974 7.2856 5.87985 7.2856 5.87996C7.2856 5.88007 7.2856 5.88017 7.2856 5.88028C7.2856 5.88039 7.2856 5.8805 7.2856 5.88061C7.2856 5.88072 7.2856 5.88083 7.2856 5.88094C7.2856 5.88105 7.2856 5.88116 7.2856 5.88127C7.2856 5.88138 7.2856 5.88149 7.2856 5.8816C7.2856 5.88171 7.2856 5.88182 7.2856 5.88193C7.2856 5.88204 7.2856 5.88215 7.2856 5.88226C7.2856 5.88237 7.2856 5.88249 7.2856 5.8826C7.2856 5.88271 7.2856 5.88282 7.2856 5.88293C7.2856 5.88304 7.2856 5.88315 7.2856 5.88326C7.2856 5.88337 7.2856 5.88348 7.2856 5.88359C7.2856 5.8837 7.2856 5.88381 7.2856 5.88392C7.2856 5.88403 7.2856 5.88414 7.2856 5.88425C7.2856 5.88436 7.2856 5.88447 7.2856 5.88458C7.2856 5.88469 7.2856 5.8848 7.2856 5.88491C7.2856 5.88503 7.2856 5.88514 7.2856 5.88525C7.2856 5.88536 7.2856 5.88547 7.2856 5.88558C7.2856 5.88569 7.2856 5.8858 7.2856 5.88591C7.2856 5.88602 7.2856 5.88613 7.2856 5.88624C7.2856 5.88636 7.2856 5.88647 7.2856 5.88658C7.2856 5.88669 7.2856 5.8868 7.2856 5.88691C7.2856 5.88702 7.2856 5.88713 7.2856 5.88724C7.2856 5.88735 7.2856 5.88747 7.2856 5.88758C7.2856 5.88769 7.2856 5.8878 7.2856 5.88791C7.2856 5.88802 7.2856 5.88813 7.2856 5.88824C7.2856 5.88836 7.2856 5.88847 7.2856 5.88858C7.2856 5.88869 7.2856 5.8888 7.2856 5.88891C7.2856 5.88902 7.2856 5.88913 7.2856 5.88925C7.2856 5.88936 7.2856 5.88947 7.2856 5.88958C7.2856 5.88969 7.2856 5.8898 7.2856 5.88992C7.2856 5.89003 7.2856 5.89014 7.2856 5.89025C7.2856 5.89036 7.2856 5.89047 7.2856 5.89058C7.2856 5.8907 7.2856 5.89081 7.2856 5.89092C7.2856 5.89103 7.2856 5.89114 7.2856 5.89126C7.2856 5.89137 7.2856 5.89148 7.2856 5.89159C7.2856 5.8917 7.2856 5.89181 7.2856 5.89193C7.2856 5.89204 7.2856 5.89215 7.2856 5.89226C7.2856 5.89237 7.2856 5.89249 7.2856 5.8926C7.2856 5.89271 7.2856 5.89282 7.2856 5.89293C7.2856 5.89305 7.2856 5.89316 7.2856 5.89327C7.2856 5.89338 7.2856 5.89349 7.2856 5.89361C7.2856 5.89372 7.2856 5.89383 7.2856 5.89394C7.2856 5.89406 7.2856 5.89417 7.2856 5.89428C7.2856 5.89439 7.2856 5.8945 7.2856 5.89462C7.2856 5.89473 7.2856 5.89484 7.2856 5.89495C7.2856 5.89507 7.2856 5.89518 7.2856 5.89529C7.2856 5.8954 7.2856 5.89552 7.2856 5.89563C7.2856 5.89574 7.2856 5.89585 7.2856 5.89597C7.2856 5.89608 7.2856 5.89619 7.2856 5.8963C7.2856 5.89642 7.2856 5.89653 7.2856 5.89664C7.2856 5.89676 7.2856 5.89687 7.2856 5.89698C7.2856 5.89709 7.2856 5.89721 7.2856 5.89732C7.2856 5.89743 7.2856 5.89754 7.2856 5.89766C7.2856 5.89777 7.2856 5.89788 7.2856 5.898C7.2856 5.89811 7.2856 5.89822 7.2856 5.89833C7.2856 5.89845 7.2856 5.89856 7.2856 5.89867C7.2856 5.89879 7.2856 5.8989 7.2856 5.89901C7.2856 5.89913 7.2856 5.89924 7.2856 5.89935C7.2856 5.89946 7.2856 5.89958 7.2856 5.89969C7.2856 5.8998 7.2856 5.89992 7.2856 5.90003C7.2856 5.90014 7.2856 5.90026 7.2856 5.90037C7.2856 5.90048 7.2856 5.9006 7.2856 5.90071C7.2856 5.90082 7.2856 5.90094 7.2856 5.90105C7.2856 5.90116 7.2856 5.90128 7.2856 5.90139C7.2856 5.9015 7.2856 5.90162 7.2856 5.90173C7.2856 5.90184 7.2856 5.90196 7.2856 5.90207C7.2856 5.90218 7.2856 5.9023 7.2856 5.90241C7.2856 5.90253 7.2856 5.90264 7.2856 5.90275C7.2856 5.90287 7.2856 5.90298 7.2856 5.90309C7.2856 5.90321 7.2856 5.90332 7.2856 5.90343C7.2856 5.90355 7.2856 5.90366 7.2856 5.90378C7.2856 5.90389 7.2856 5.904 7.2856 5.90412C7.2856 5.90423 7.2856 5.90434 7.2856 5.90446C7.2856 5.90457 7.2856 5.90469 7.2856 5.9048C7.2856 5.90491 7.2856 5.90503 7.2856 5.90514C7.2856 5.90526 7.2856 5.90537 7.2856 5.90548C7.2856 5.9056 7.2856 5.90571 7.2856 5.90583C7.2856 5.90594 7.2856 5.90605 7.2856 5.90617C7.2856 5.90628 7.2856 5.9064 7.2856 5.90651C7.2856 5.90662 7.2856 5.90674 7.2856 5.90685C7.2856 5.90697 7.2856 5.90708 7.2856 5.9072C7.2856 5.90731 7.2856 5.90742 7.2856 5.90754C7.2856 5.90765 7.2856 5.90777 7.2856 5.90788C7.2856 5.908 7.2856 5.90811 7.2856 5.90822C7.2856 5.90834 7.2856 5.90845 7.2856 5.90857C7.2856 5.90868 7.2856 5.9088 7.2856 5.90891C7.2856 5.90903 7.2856 5.90914 7.2856 5.90925C7.2856 5.90937 7.2856 5.90948 7.2856 5.9096C7.2856 5.90971 7.2856 5.90983 7.2856 5.90994C7.2856 5.91006 7.2856 5.91017 7.2856 5.91029C7.2856 5.9104 7.2856 5.91052 7.2856 5.91063C7.2856 5.91075 7.2856 5.91086 7.2856 5.91097C7.2856 5.91109 7.2856 5.9112 7.2856 5.91132C7.2856 5.91143 7.2856 5.91155 7.2856 5.91166C7.2856 5.91178 7.2856 5.91189 7.2856 5.91201C7.2856 5.91212 7.2856 5.91224 7.2856 5.91235C7.2856 5.91247 7.2856 5.91258 7.2856 5.9127C7.2856 5.91281 7.2856 5.91293 7.2856 5.91304C7.2856 5.91316 7.2856 5.91327 7.2856 5.91339C7.2856 5.9135 7.2856 5.91362 7.2856 5.91373C7.2856 5.91385 7.2856 5.91396 7.2856 5.91408C7.2856 5.91419 7.2856 5.91431 7.2856 5.91442C7.2856 5.91454 7.2856 5.91466 7.2856 5.91477C7.2856 5.91489 7.2856 5.915 7.2856 5.91512C7.2856 5.91523 7.2856 5.91535 7.2856 5.91546C7.2856 5.91558 7.2856 5.91569 7.2856 5.91581C7.2856 5.91592 7.2856 5.91604 7.2856 5.91615C7.2856 5.91627 7.2856 5.91639 7.2856 5.9165C7.2856 5.91662 7.2856 5.91673 7.2856 5.91685C7.2856 5.91696 7.2856 5.91708 7.2856 5.91719C7.2856 5.91731 7.2856 5.91743 7.2856 5.91754C7.2856 5.91766 7.2856 5.91777 7.2856 5.91789C7.2856 5.918 7.2856 5.91812 7.2856 5.91824C7.2856 5.91835 7.2856 5.91847 7.2856 5.91858C7.2856 5.9187 7.2856 5.91881 7.2856 5.91893C7.2856 5.91905 7.2856 5.91916 7.2856 5.91928C7.2856 5.91939 7.2856 5.91951 7.2856 5.91962C7.2856 5.91974 7.2856 5.91986 7.2856 5.91997C7.2856 5.92009 7.2856 5.9202 7.2856 5.92032C7.2856 5.92044 7.2856 5.92055 7.2856 5.92067C7.2856 5.92078 7.2856 5.9209 7.2856 5.92102C7.2856 5.92113 7.2856 5.92125 7.2856 5.92136C7.2856 5.92148 7.2856 5.9216 7.2856 5.92171C7.2856 5.92183 7.2856 5.92194 7.2856 5.92206C7.2856 5.92218 7.2856 5.92229 7.2856 5.92241C7.2856 5.92253 7.2856 5.92264 7.2856 5.92276C7.2856 5.92287 7.2856 5.92299 7.2856 5.92311C7.2856 5.92322 7.2856 5.92334 7.2856 5.92346C7.2856 5.92357 7.2856 5.92369 7.2856 5.9238C7.2856 5.92392 7.2856 5.92404 7.2856 5.92415C7.2856 5.92427 7.2856 5.92439 7.2856 5.9245C7.2856 5.92462 7.2856 5.92474 7.2856 5.92485C7.2856 5.92497 7.2856 5.92509 7.2856 5.9252C7.2856 5.92532 7.2856 5.92544 7.2856 5.92555C7.2856 5.92567 7.2856 5.92578 7.2856 5.9259C7.2856 5.92602 7.2856 5.92613 7.2856 5.92625C7.2856 5.92637 7.2856 5.92648 7.2856 5.9266C7.2856 5.92672 7.2856 5.92683 7.2856 5.92695C7.2856 5.92707 7.2856 5.92718 7.2856 5.9273C7.2856 5.92742 7.2856 5.92753 7.2856 5.92765C7.2856 5.92777 7.2856 5.92789 7.2856 5.928C7.2856 5.92812 7.2856 5.92824 7.2856 5.92835C7.2856 5.92847 7.2856 5.92859 7.2856 5.9287C7.2856 5.92882 7.2856 5.92894 7.2856 5.92905C7.2856 5.92917 7.2856 5.92929 7.2856 5.9294C7.2856 5.92952 7.2856 5.92964 7.2856 5.92976C7.2856 5.92987 7.2856 5.92999 7.2856 5.93011C7.2856 5.93022 7.2856 5.93034 7.2856 5.93046C7.2856 5.93057 7.2856 5.93069 7.2856 5.93081C7.2856 5.93093 7.2856 5.93104 7.2856 5.93116C7.2856 5.93128 7.2856 5.93139 7.2856 5.93151C7.2856 5.93163 7.2856 5.93175 7.2856 5.93186C7.2856 5.93198 7.2856 5.9321 7.2856 5.93222C7.2856 5.93233 7.2856 5.93245 7.2856 5.93257C7.2856 5.93268 7.2856 5.9328 7.2856 5.93292C7.2856 5.93304 7.2856 5.93315 7.2856 5.93327C7.2856 5.93339 7.2856 5.93351 7.2856 5.93362C7.2856 5.93374 7.2856 5.93386 7.2856 5.93398C7.2856 5.93409 7.2856 5.93421 7.2856 5.93433C7.2856 5.93444 7.2856 5.93456 7.2856 5.93468C7.2856 5.9348 7.2856 5.93491 7.2856 5.93503C7.2856 5.93515 7.2856 5.93527 7.2856 5.93538C7.2856 5.9355 7.2856 5.93562 7.2856 5.93574C7.2856 5.93586 7.2856 5.93597 7.2856 5.93609C7.2856 5.93621 7.2856 5.93633 7.2856 5.93644C7.2856 5.93656 7.2856 5.93668 7.2856 5.9368C7.2856 5.93691 7.2856 5.93703 7.2856 5.93715C7.2856 5.93727 7.2856 5.93738 7.2856 5.9375C7.2856 5.93762 7.2856 5.93774 7.2856 5.93786C7.2856 5.93797 7.2856 5.93809 7.2856 5.93821C7.2856 5.93833 7.2856 5.93845 7.2856 5.93856C7.2856 5.93868 7.2856 5.9388 7.2856 5.93892C7.2856 5.93903 7.2856 5.93915 7.2856 5.93927C7.2856 5.93939 7.2856 5.93951 7.2856 5.93962C7.2856 5.93974 7.2856 5.93986 7.2856 5.93998C7.2856 5.9401 7.2856 5.94021 7.2856 5.94033C7.2856 5.94045 7.2856 5.94057 7.2856 5.94069C7.2856 5.9408 7.2856 5.94092 7.2856 5.94104C7.2856 5.94116 7.2856 5.94128 7.2856 5.94139C7.2856 5.94151 7.2856 5.94163 7.2856 5.94175C7.2856 5.94187 7.2856 5.94198 7.2856 5.9421C7.2856 5.94222 7.2856 5.94234 7.2856 5.94246C7.2856 5.94258 7.2856 5.94269 7.2856 5.94281C7.2856 5.94293 7.2856 5.94305 7.2856 5.94317C7.2856 5.94328 7.2856 5.9434 7.2856 5.94352C7.2856 5.94364 7.2856 5.94376 7.2856 5.94388C7.2856 5.94399 7.2856 5.94411 7.2856 5.94423C7.2856 5.94435 7.2856 5.94447 7.2856 5.94459C7.2856 5.9447 7.2856 5.94482 7.2856 5.94494C7.2856 5.94506 7.2856 5.94518 7.2856 5.9453C7.2856 5.94542 7.2856 5.94553 7.2856 5.94565C7.2856 5.94577 7.2856 5.94589 7.2856 5.94601C7.2856 5.94613 7.2856 5.94624 7.2856 5.94636C7.2856 5.94648 7.2856 5.9466 7.2856 5.94672C7.2856 5.94684 7.2856 5.94696 7.2856 5.94707C7.2856 5.94719 7.2856 5.94731 7.2856 5.94743C7.2856 5.94755 7.2856 5.94767 7.2856 5.94779C7.2856 5.9479 7.2856 5.94802 7.2856 5.94814C7.2856 5.94826 7.2856 5.94838 7.2856 5.9485C7.2856 5.94862 7.2856 5.94873 7.2856 5.94885C7.2856 5.94897 7.2856 5.94909 7.2856 5.94921C7.2856 5.94933 7.2856 5.94945 7.2856 5.94957C7.2856 5.94968 7.2856 5.9498 7.2856 5.94992C7.2856 5.95004 7.2856 5.95016 7.2856 5.95028C7.2856 5.9504 7.2856 5.95052 7.2856 5.95063C7.2856 5.95075 7.2856 5.95087 7.2856 5.95099C7.2856 5.95111 7.2856 5.95123 7.2856 5.95135C7.2856 5.95147 7.2856 5.95159 7.2856 5.9517C7.2856 5.95182 7.2856 5.95194 7.2856 5.95206C7.2856 5.95218 7.2856 5.9523 7.2856 5.95242C7.2856 5.95254 7.2856 5.95266 7.2856 5.95277C7.2856 5.95289 7.2856 5.95301 7.2856 5.95313C7.2856 5.95325 7.2856 5.95337 7.2856 5.95349C7.2856 5.95361 7.2856 5.95373 7.2856 5.95385C7.2856 5.95396 7.2856 5.95408 7.2856 5.9542C7.2856 5.95432 7.2856 5.95444 7.2856 5.95456C7.2856 5.95468 7.2856 5.9548 7.2856 5.95492C7.2856 5.95504 7.2856 5.95516 7.2856 5.95527C7.2856 5.95539 7.2856 5.95551 7.2856 5.95563C7.2856 5.95575 7.2856 5.95587 7.2856 5.95599C7.2856 5.95611 7.2856 5.95623 7.2856 5.95635C7.2856 5.95647 7.2856 5.95659 7.2856 5.9567C7.2856 5.95682 7.2856 5.95694 7.2856 5.95706C7.2856 5.95718 7.2856 5.9573 7.2856 5.95742C7.2856 5.95754 7.2856 5.95766 7.2856 5.95778C7.2856 5.9579 7.2856 5.95802 7.2856 5.95814C7.2856 5.95826 7.2856 5.95837 7.2856 5.95849C7.2856 5.95861 7.2856 5.95873 7.2856 5.95885C7.2856 5.95897 7.2856 5.95909 7.2856 5.95921C7.2856 5.95933 7.2856 5.95945 7.2856 5.95957C7.2856 5.95969 7.2856 5.95981 7.2856 5.95993C7.2856 5.96005 7.2856 5.96017 7.2856 5.96028C7.2856 5.9604 7.2856 5.96052 7.2856 5.96064C7.2856 5.96076 7.2856 5.96088 7.2856 5.961C7.2856 5.96112 7.2856 5.96124 7.2856 5.96136C7.2856 5.96148 7.2856 5.9616 7.2856 5.96172C7.2856 5.96184 7.2856 5.96196 7.2856 5.96208C7.2856 5.9622 7.2856 5.96232 7.2856 5.96244C7.2856 5.96256 7.2856 5.96267 7.2856 5.96279C7.2856 5.96291 7.2856 5.96303 7.2856 5.96315C7.2856 5.96327 7.2856 5.96339 7.2856 5.96351C7.2856 5.96363 7.2856 5.96375 7.2856 5.96387C7.2856 5.96399 7.2856 5.96411 7.2856 5.96423C7.2856 5.96435 7.2856 5.96447 7.2856 5.96459C7.2856 5.96471 7.2856 5.96483 7.2856 5.96495C7.2856 5.96507 7.2856 5.96519 7.2856 5.96531C7.2856 5.96543 7.2856 5.96555 7.2856 5.96567C7.2856 5.96579 7.2856 5.96591 7.2856 5.96602C7.2856 5.96614 7.2856 5.96626 7.2856 5.96638C7.2856 5.9665 7.2856 5.96662 7.2856 5.96674C7.2856 5.96686 7.2856 5.96698 7.2856 5.9671C7.2856 5.96722 7.2856 5.96734 7.2856 5.96746C7.2856 5.96758 7.2856 5.9677 7.2856 5.96782C7.2856 5.96794 7.2856 5.96806 7.2856 5.96818C7.2856 5.9683 7.2856 5.96842 7.2856 5.96854C7.2856 5.96866 7.2856 5.96878 7.2856 5.9689C7.2856 5.96902 7.2856 5.96914 7.2856 5.96926C7.2856 5.96938 7.2856 5.9695 7.2856 5.96962C7.2856 5.96974 7.2856 5.96986 7.2856 5.96998C7.2856 5.9701 7.2856 5.97022 7.2856 5.97034C7.2856 5.97046 7.2856 5.97058 7.2856 5.9707C7.2856 5.97082 7.2856 5.97094 7.2856 5.97106C7.2856 5.97118 7.2856 5.9713 7.2856 5.97142C7.2856 5.97154 7.2856 5.97166 7.2856 5.97178C7.2856 5.9719 7.2856 5.97202 7.2856 5.97214C7.2856 5.97226 7.2856 5.97238 7.2856 5.9725C7.2856 5.97262 7.2856 5.97274 7.2856 5.97286C7.2856 5.97298 7.2856 5.9731 7.2856 5.97322C7.2856 5.97334 7.2856 5.97346 7.2856 5.97358C7.2856 5.9737 7.2856 5.97382 7.2856 5.97394C7.2856 5.97406 7.2856 5.97418 7.2856 5.9743C7.2856 5.97442 7.2856 5.97454 7.2856 5.97466C7.2856 5.97478 7.2856 5.9749 7.2856 5.97502C7.2856 5.97514 7.2856 5.97526 7.2856 5.97538C7.2856 5.9755 7.2856 5.97562 7.2856 5.97574C7.2856 5.97586 7.2856 5.97598 7.2856 5.9761C7.2856 5.97622 7.2856 5.97634 7.2856 5.97646C7.2856 5.97658 7.2856 5.9767 7.2856 5.97682C7.2856 5.97694 7.2856 5.97706 7.2856 5.97718C7.2856 5.9773 7.2856 5.97742 7.2856 5.97754C7.2856 5.97766 7.2856 5.97778 7.2856 5.9779C7.2856 5.97802 7.2856 5.97814 7.2856 5.97827C7.2856 5.97839 7.2856 5.97851 7.2856 5.97863C7.2856 5.97875 7.2856 5.97887 7.2856 5.97899C7.2856 5.97911 7.2856 5.97923 7.2856 5.97935C7.2856 5.97947 7.2856 5.97959 7.2856 5.97971C7.2856 5.97983 7.2856 5.97995 7.2856 5.98007C7.2856 5.98019 7.2856 5.98031 7.2856 5.98043C7.2856 5.98055 7.2856 5.98067 7.2856 5.98079C7.2856 5.98091 7.2856 5.98103 7.2856 5.98115C7.2856 5.98127 7.2856 5.98139 7.2856 5.98151C7.2856 5.98163 7.2856 5.98175 7.2856 5.98187C7.2856 5.98199 7.2856 5.98211 7.2856 5.98223C7.2856 5.98235 7.2856 5.98248 7.2856 5.9826C7.2856 5.98272 7.2856 5.98284 7.2856 5.98296C7.2856 5.98308 7.2856 5.9832 7.2856 5.98332C7.2856 5.98344 7.2856 5.98356 7.2856 5.98368C7.2856 5.9838 7.2856 5.98392 7.2856 5.98404C7.2856 5.98416 7.2856 5.98428 7.2856 5.9844C7.2856 5.98452 7.2856 5.98464 7.2856 5.98476C7.2856 5.98488 7.2856 5.985 7.2856 5.98512C7.2856 5.98524 7.2856 5.98536 7.2856 5.98548C7.2856 5.98561 7.2856 5.98573 7.2856 5.98585C7.2856 5.98597 7.2856 5.98609 7.2856 5.98621C7.2856 5.98633 7.2856 5.98645 7.2856 5.98657C7.2856 5.98669 7.2856 5.98681 7.2856 5.98693C7.2856 5.98705 7.2856 5.98717 7.2856 5.98729C7.2856 5.98741 7.2856 5.98753 7.2856 5.98765C7.2856 5.98777 7.2856 5.98789 7.2856 5.98801C7.2856 5.98813 7.2856 5.98825 7.2856 5.98838C7.2856 5.9885 7.2856 5.98862 7.2856 5.98874C7.2856 5.98886 7.2856 5.98898 7.2856 5.9891C7.2856 5.98922 7.2856 5.98934 7.2856 5.98946C7.2856 5.98958 7.2856 5.9897 7.2856 5.98982C7.2856 5.98994 7.2856 5.99006 7.2856 5.99018C7.2856 5.9903 7.2856 5.99042 7.2856 5.99054C7.2856 5.99066 7.2856 5.99078 7.2856 5.99091C7.2856 5.99103 7.2856 5.99115 7.2856 5.99127C7.2856 5.99139 7.2856 5.99151 7.2856 5.99163C7.2856 5.99175 7.2856 5.99187 7.2856 5.99199C7.2856 5.99211 7.2856 5.99223 7.2856 5.99235C7.2856 5.99247 7.2856 5.99259 7.2856 5.99271C7.2856 5.99283 7.2856 5.99295 7.2856 5.99307C7.2856 5.9932 7.2856 5.99332 7.2856 5.99344C7.2856 5.99356 7.2856 5.99368 7.2856 5.9938C7.2856 5.99392 7.2856 5.99404 7.2856 5.99416C7.2856 5.99428 7.2856 5.9944 7.2856 5.99452C7.2856 5.99464 7.2856 5.99476 7.2856 5.99488C7.2856 5.995 7.2856 5.99512 7.2856 5.99524C7.2856 5.99537 7.2856 5.99549 7.2856 5.99561C7.2856 5.99573 7.2856 5.99585 7.2856 5.99597C7.2856 5.99609 7.2856 5.99621 7.2856 5.99633C7.2856 5.99645 7.2856 5.99657 7.2856 5.99669C7.2856 5.99681 7.2856 5.99693 7.2856 5.99705C7.2856 5.99717 7.2856 5.99729 7.2856 5.99741C7.2856 5.99754 7.2856 5.99766 7.2856 5.99778C7.2856 5.9979 7.2856 5.99802 7.2856 5.99814C7.2856 5.99826 7.2856 5.99838 7.2856 5.9985C7.2856 5.99862 7.2856 5.99874 7.2856 5.99886C7.2856 5.99898 7.2856 5.9991 7.2856 5.99922C7.2856 5.99934 7.2856 5.99946 7.2856 5.99958C7.2856 5.99971 7.2856 5.99983 7.2856 5.99995C7.2856 6.00007 7.2856 6.00019 7.2856 6.00031H9.2856C9.2856 6.00019 9.2856 6.00007 9.2856 5.99995C9.2856 5.99983 9.2856 5.99971 9.2856 5.99958C9.2856 5.99946 9.2856 5.99934 9.2856 5.99922C9.2856 5.9991 9.2856 5.99898 9.2856 5.99886C9.2856 5.99874 9.2856 5.99862 9.2856 5.9985C9.2856 5.99838 9.2856 5.99826 9.2856 5.99814C9.2856 5.99802 9.2856 5.9979 9.2856 5.99778C9.2856 5.99766 9.2856 5.99754 9.2856 5.99741C9.2856 5.99729 9.2856 5.99717 9.2856 5.99705C9.2856 5.99693 9.2856 5.99681 9.2856 5.99669C9.2856 5.99657 9.2856 5.99645 9.2856 5.99633C9.2856 5.99621 9.2856 5.99609 9.2856 5.99597C9.2856 5.99585 9.2856 5.99573 9.2856 5.99561C9.2856 5.99549 9.2856 5.99537 9.2856 5.99524C9.2856 5.99512 9.2856 5.995 9.2856 5.99488C9.2856 5.99476 9.2856 5.99464 9.2856 5.99452C9.2856 5.9944 9.2856 5.99428 9.2856 5.99416C9.2856 5.99404 9.2856 5.99392 9.2856 5.9938C9.2856 5.99368 9.2856 5.99356 9.2856 5.99344C9.2856 5.99332 9.2856 5.9932 9.2856 5.99307C9.2856 5.99295 9.2856 5.99283 9.2856 5.99271C9.2856 5.99259 9.2856 5.99247 9.2856 5.99235C9.2856 5.99223 9.2856 5.99211 9.2856 5.99199C9.2856 5.99187 9.2856 5.99175 9.2856 5.99163C9.2856 5.99151 9.2856 5.99139 9.2856 5.99127C9.2856 5.99115 9.2856 5.99103 9.2856 5.99091C9.2856 5.99078 9.2856 5.99066 9.2856 5.99054C9.2856 5.99042 9.2856 5.9903 9.2856 5.99018C9.2856 5.99006 9.2856 5.98994 9.2856 5.98982C9.2856 5.9897 9.2856 5.98958 9.2856 5.98946C9.2856 5.98934 9.2856 5.98922 9.2856 5.9891C9.2856 5.98898 9.2856 5.98886 9.2856 5.98874C9.2856 5.98862 9.2856 5.9885 9.2856 5.98838C9.2856 5.98825 9.2856 5.98813 9.2856 5.98801C9.2856 5.98789 9.2856 5.98777 9.2856 5.98765C9.2856 5.98753 9.2856 5.98741 9.2856 5.98729C9.2856 5.98717 9.2856 5.98705 9.2856 5.98693C9.2856 5.98681 9.2856 5.98669 9.2856 5.98657C9.2856 5.98645 9.2856 5.98633 9.2856 5.98621C9.2856 5.98609 9.2856 5.98597 9.2856 5.98585C9.2856 5.98573 9.2856 5.98561 9.2856 5.98548C9.2856 5.98536 9.2856 5.98524 9.2856 5.98512C9.2856 5.985 9.2856 5.98488 9.2856 5.98476C9.2856 5.98464 9.2856 5.98452 9.2856 5.9844C9.2856 5.98428 9.2856 5.98416 9.2856 5.98404C9.2856 5.98392 9.2856 5.9838 9.2856 5.98368C9.2856 5.98356 9.2856 5.98344 9.2856 5.98332C9.2856 5.9832 9.2856 5.98308 9.2856 5.98296C9.2856 5.98284 9.2856 5.98272 9.2856 5.9826C9.2856 5.98248 9.2856 5.98235 9.2856 5.98223C9.2856 5.98211 9.2856 5.98199 9.2856 5.98187C9.2856 5.98175 9.2856 5.98163 9.2856 5.98151C9.2856 5.98139 9.2856 5.98127 9.2856 5.98115C9.2856 5.98103 9.2856 5.98091 9.2856 5.98079C9.2856 5.98067 9.2856 5.98055 9.2856 5.98043C9.2856 5.98031 9.2856 5.98019 9.2856 5.98007C9.2856 5.97995 9.2856 5.97983 9.2856 5.97971C9.2856 5.97959 9.2856 5.97947 9.2856 5.97935C9.2856 5.97923 9.2856 5.97911 9.2856 5.97899C9.2856 5.97887 9.2856 5.97875 9.2856 5.97863C9.2856 5.97851 9.2856 5.97839 9.2856 5.97827C9.2856 5.97814 9.2856 5.97802 9.2856 5.9779C9.2856 5.97778 9.2856 5.97766 9.2856 5.97754C9.2856 5.97742 9.2856 5.9773 9.2856 5.97718C9.2856 5.97706 9.2856 5.97694 9.2856 5.97682C9.2856 5.9767 9.2856 5.97658 9.2856 5.97646C9.2856 5.97634 9.2856 5.97622 9.2856 5.9761C9.2856 5.97598 9.2856 5.97586 9.2856 5.97574C9.2856 5.97562 9.2856 5.9755 9.2856 5.97538C9.2856 5.97526 9.2856 5.97514 9.2856 5.97502C9.2856 5.9749 9.2856 5.97478 9.2856 5.97466C9.2856 5.97454 9.2856 5.97442 9.2856 5.9743C9.2856 5.97418 9.2856 5.97406 9.2856 5.97394C9.2856 5.97382 9.2856 5.9737 9.2856 5.97358C9.2856 5.97346 9.2856 5.97334 9.2856 5.97322C9.2856 5.9731 9.2856 5.97298 9.2856 5.97286C9.2856 5.97274 9.2856 5.97262 9.2856 5.9725C9.2856 5.97238 9.2856 5.97226 9.2856 5.97214C9.2856 5.97202 9.2856 5.9719 9.2856 5.97178C9.2856 5.97166 9.2856 5.97154 9.2856 5.97142C9.2856 5.9713 9.2856 5.97118 9.2856 5.97106C9.2856 5.97094 9.2856 5.97082 9.2856 5.9707C9.2856 5.97058 9.2856 5.97046 9.2856 5.97034C9.2856 5.97022 9.2856 5.9701 9.2856 5.96998C9.2856 5.96986 9.2856 5.96974 9.2856 5.96962C9.2856 5.9695 9.2856 5.96938 9.2856 5.96926C9.2856 5.96914 9.2856 5.96902 9.2856 5.9689C9.2856 5.96878 9.2856 5.96866 9.2856 5.96854C9.2856 5.96842 9.2856 5.9683 9.2856 5.96818C9.2856 5.96806 9.2856 5.96794 9.2856 5.96782C9.2856 5.9677 9.2856 5.96758 9.2856 5.96746C9.2856 5.96734 9.2856 5.96722 9.2856 5.9671C9.2856 5.96698 9.2856 5.96686 9.2856 5.96674C9.2856 5.96662 9.2856 5.9665 9.2856 5.96638C9.2856 5.96626 9.2856 5.96614 9.2856 5.96602C9.2856 5.96591 9.2856 5.96579 9.2856 5.96567C9.2856 5.96555 9.2856 5.96543 9.2856 5.96531C9.2856 5.96519 9.2856 5.96507 9.2856 5.96495C9.2856 5.96483 9.2856 5.96471 9.2856 5.96459C9.2856 5.96447 9.2856 5.96435 9.2856 5.96423C9.2856 5.96411 9.2856 5.96399 9.2856 5.96387C9.2856 5.96375 9.2856 5.96363 9.2856 5.96351C9.2856 5.96339 9.2856 5.96327 9.2856 5.96315C9.2856 5.96303 9.2856 5.96291 9.2856 5.96279C9.2856 5.96267 9.2856 5.96256 9.2856 5.96244C9.2856 5.96232 9.2856 5.9622 9.2856 5.96208C9.2856 5.96196 9.2856 5.96184 9.2856 5.96172C9.2856 5.9616 9.2856 5.96148 9.2856 5.96136C9.2856 5.96124 9.2856 5.96112 9.2856 5.961C9.2856 5.96088 9.2856 5.96076 9.2856 5.96064C9.2856 5.96052 9.2856 5.9604 9.2856 5.96028C9.2856 5.96017 9.2856 5.96005 9.2856 5.95993C9.2856 5.95981 9.2856 5.95969 9.2856 5.95957C9.2856 5.95945 9.2856 5.95933 9.2856 5.95921C9.2856 5.95909 9.2856 5.95897 9.2856 5.95885C9.2856 5.95873 9.2856 5.95861 9.2856 5.95849C9.2856 5.95837 9.2856 5.95826 9.2856 5.95814C9.2856 5.95802 9.2856 5.9579 9.2856 5.95778C9.2856 5.95766 9.2856 5.95754 9.2856 5.95742C9.2856 5.9573 9.2856 5.95718 9.2856 5.95706C9.2856 5.95694 9.2856 5.95682 9.2856 5.9567C9.2856 5.95659 9.2856 5.95647 9.2856 5.95635C9.2856 5.95623 9.2856 5.95611 9.2856 5.95599C9.2856 5.95587 9.2856 5.95575 9.2856 5.95563C9.2856 5.95551 9.2856 5.95539 9.2856 5.95527C9.2856 5.95516 9.2856 5.95504 9.2856 5.95492C9.2856 5.9548 9.2856 5.95468 9.2856 5.95456C9.2856 5.95444 9.2856 5.95432 9.2856 5.9542C9.2856 5.95408 9.2856 5.95396 9.2856 5.95385C9.2856 5.95373 9.2856 5.95361 9.2856 5.95349C9.2856 5.95337 9.2856 5.95325 9.2856 5.95313C9.2856 5.95301 9.2856 5.95289 9.2856 5.95277C9.2856 5.95266 9.2856 5.95254 9.2856 5.95242C9.2856 5.9523 9.2856 5.95218 9.2856 5.95206C9.2856 5.95194 9.2856 5.95182 9.2856 5.9517C9.2856 5.95159 9.2856 5.95147 9.2856 5.95135C9.2856 5.95123 9.2856 5.95111 9.2856 5.95099C9.2856 5.95087 9.2856 5.95075 9.2856 5.95063C9.2856 5.95052 9.2856 5.9504 9.2856 5.95028C9.2856 5.95016 9.2856 5.95004 9.2856 5.94992C9.2856 5.9498 9.2856 5.94968 9.2856 5.94957C9.2856 5.94945 9.2856 5.94933 9.2856 5.94921C9.2856 5.94909 9.2856 5.94897 9.2856 5.94885C9.2856 5.94873 9.2856 5.94862 9.2856 5.9485C9.2856 5.94838 9.2856 5.94826 9.2856 5.94814C9.2856 5.94802 9.2856 5.9479 9.2856 5.94779C9.2856 5.94767 9.2856 5.94755 9.2856 5.94743C9.2856 5.94731 9.2856 5.94719 9.2856 5.94707C9.2856 5.94696 9.2856 5.94684 9.2856 5.94672C9.2856 5.9466 9.2856 5.94648 9.2856 5.94636C9.2856 5.94624 9.2856 5.94613 9.2856 5.94601C9.2856 5.94589 9.2856 5.94577 9.2856 5.94565C9.2856 5.94553 9.2856 5.94542 9.2856 5.9453C9.2856 5.94518 9.2856 5.94506 9.2856 5.94494C9.2856 5.94482 9.2856 5.9447 9.2856 5.94459C9.2856 5.94447 9.2856 5.94435 9.2856 5.94423C9.2856 5.94411 9.2856 5.94399 9.2856 5.94388C9.2856 5.94376 9.2856 5.94364 9.2856 5.94352C9.2856 5.9434 9.2856 5.94328 9.2856 5.94317C9.2856 5.94305 9.2856 5.94293 9.2856 5.94281C9.2856 5.94269 9.2856 5.94258 9.2856 5.94246C9.2856 5.94234 9.2856 5.94222 9.2856 5.9421C9.2856 5.94198 9.2856 5.94187 9.2856 5.94175C9.2856 5.94163 9.2856 5.94151 9.2856 5.94139C9.2856 5.94128 9.2856 5.94116 9.2856 5.94104C9.2856 5.94092 9.2856 5.9408 9.2856 5.94069C9.2856 5.94057 9.2856 5.94045 9.2856 5.94033C9.2856 5.94021 9.2856 5.9401 9.2856 5.93998C9.2856 5.93986 9.2856 5.93974 9.2856 5.93962C9.2856 5.93951 9.2856 5.93939 9.2856 5.93927C9.2856 5.93915 9.2856 5.93903 9.2856 5.93892C9.2856 5.9388 9.2856 5.93868 9.2856 5.93856C9.2856 5.93845 9.2856 5.93833 9.2856 5.93821C9.2856 5.93809 9.2856 5.93797 9.2856 5.93786C9.2856 5.93774 9.2856 5.93762 9.2856 5.9375C9.2856 5.93738 9.2856 5.93727 9.2856 5.93715C9.2856 5.93703 9.2856 5.93691 9.2856 5.9368C9.2856 5.93668 9.2856 5.93656 9.2856 5.93644C9.2856 5.93633 9.2856 5.93621 9.2856 5.93609C9.2856 5.93597 9.2856 5.93586 9.2856 5.93574C9.2856 5.93562 9.2856 5.9355 9.2856 5.93538C9.2856 5.93527 9.2856 5.93515 9.2856 5.93503C9.2856 5.93491 9.2856 5.9348 9.2856 5.93468C9.2856 5.93456 9.2856 5.93444 9.2856 5.93433C9.2856 5.93421 9.2856 5.93409 9.2856 5.93398C9.2856 5.93386 9.2856 5.93374 9.2856 5.93362C9.2856 5.93351 9.2856 5.93339 9.2856 5.93327C9.2856 5.93315 9.2856 5.93304 9.2856 5.93292C9.2856 5.9328 9.2856 5.93268 9.2856 5.93257C9.2856 5.93245 9.2856 5.93233 9.2856 5.93222C9.2856 5.9321 9.2856 5.93198 9.2856 5.93186C9.2856 5.93175 9.2856 5.93163 9.2856 5.93151C9.2856 5.93139 9.2856 5.93128 9.2856 5.93116C9.2856 5.93104 9.2856 5.93093 9.2856 5.93081C9.2856 5.93069 9.2856 5.93057 9.2856 5.93046C9.2856 5.93034 9.2856 5.93022 9.2856 5.93011C9.2856 5.92999 9.2856 5.92987 9.2856 5.92976C9.2856 5.92964 9.2856 5.92952 9.2856 5.9294C9.2856 5.92929 9.2856 5.92917 9.2856 5.92905C9.2856 5.92894 9.2856 5.92882 9.2856 5.9287C9.2856 5.92859 9.2856 5.92847 9.2856 5.92835C9.2856 5.92824 9.2856 5.92812 9.2856 5.928C9.2856 5.92789 9.2856 5.92777 9.2856 5.92765C9.2856 5.92753 9.2856 5.92742 9.2856 5.9273C9.2856 5.92718 9.2856 5.92707 9.2856 5.92695C9.2856 5.92683 9.2856 5.92672 9.2856 5.9266C9.2856 5.92648 9.2856 5.92637 9.2856 5.92625C9.2856 5.92613 9.2856 5.92602 9.2856 5.9259C9.2856 5.92578 9.2856 5.92567 9.2856 5.92555C9.2856 5.92544 9.2856 5.92532 9.2856 5.9252C9.2856 5.92509 9.2856 5.92497 9.2856 5.92485C9.2856 5.92474 9.2856 5.92462 9.2856 5.9245C9.2856 5.92439 9.2856 5.92427 9.2856 5.92415C9.2856 5.92404 9.2856 5.92392 9.2856 5.9238C9.2856 5.92369 9.2856 5.92357 9.2856 5.92346C9.2856 5.92334 9.2856 5.92322 9.2856 5.92311C9.2856 5.92299 9.2856 5.92287 9.2856 5.92276C9.2856 5.92264 9.2856 5.92253 9.2856 5.92241C9.2856 5.92229 9.2856 5.92218 9.2856 5.92206C9.2856 5.92194 9.2856 5.92183 9.2856 5.92171C9.2856 5.9216 9.2856 5.92148 9.2856 5.92136C9.2856 5.92125 9.2856 5.92113 9.2856 5.92102C9.2856 5.9209 9.2856 5.92078 9.2856 5.92067C9.2856 5.92055 9.2856 5.92044 9.2856 5.92032C9.2856 5.9202 9.2856 5.92009 9.2856 5.91997C9.2856 5.91986 9.2856 5.91974 9.2856 5.91962C9.2856 5.91951 9.2856 5.91939 9.2856 5.91928C9.2856 5.91916 9.2856 5.91905 9.2856 5.91893C9.2856 5.91881 9.2856 5.9187 9.2856 5.91858C9.2856 5.91847 9.2856 5.91835 9.2856 5.91824C9.2856 5.91812 9.2856 5.918 9.2856 5.91789C9.2856 5.91777 9.2856 5.91766 9.2856 5.91754C9.2856 5.91743 9.2856 5.91731 9.2856 5.91719C9.2856 5.91708 9.2856 5.91696 9.2856 5.91685C9.2856 5.91673 9.2856 5.91662 9.2856 5.9165C9.2856 5.91639 9.2856 5.91627 9.2856 5.91615C9.2856 5.91604 9.2856 5.91592 9.2856 5.91581C9.2856 5.91569 9.2856 5.91558 9.2856 5.91546C9.2856 5.91535 9.2856 5.91523 9.2856 5.91512C9.2856 5.915 9.2856 5.91489 9.2856 5.91477C9.2856 5.91466 9.2856 5.91454 9.2856 5.91442C9.2856 5.91431 9.2856 5.91419 9.2856 5.91408C9.2856 5.91396 9.2856 5.91385 9.2856 5.91373C9.2856 5.91362 9.2856 5.9135 9.2856 5.91339C9.2856 5.91327 9.2856 5.91316 9.2856 5.91304C9.2856 5.91293 9.2856 5.91281 9.2856 5.9127C9.2856 5.91258 9.2856 5.91247 9.2856 5.91235C9.2856 5.91224 9.2856 5.91212 9.2856 5.91201C9.2856 5.91189 9.2856 5.91178 9.2856 5.91166C9.2856 5.91155 9.2856 5.91143 9.2856 5.91132C9.2856 5.9112 9.2856 5.91109 9.2856 5.91097C9.2856 5.91086 9.2856 5.91075 9.2856 5.91063C9.2856 5.91052 9.2856 5.9104 9.2856 5.91029C9.2856 5.91017 9.2856 5.91006 9.2856 5.90994C9.2856 5.90983 9.2856 5.90971 9.2856 5.9096C9.2856 5.90948 9.2856 5.90937 9.2856 5.90925C9.2856 5.90914 9.2856 5.90903 9.2856 5.90891C9.2856 5.9088 9.2856 5.90868 9.2856 5.90857C9.2856 5.90845 9.2856 5.90834 9.2856 5.90822C9.2856 5.90811 9.2856 5.908 9.2856 5.90788C9.2856 5.90777 9.2856 5.90765 9.2856 5.90754C9.2856 5.90742 9.2856 5.90731 9.2856 5.9072C9.2856 5.90708 9.2856 5.90697 9.2856 5.90685C9.2856 5.90674 9.2856 5.90662 9.2856 5.90651C9.2856 5.9064 9.2856 5.90628 9.2856 5.90617C9.2856 5.90605 9.2856 5.90594 9.2856 5.90583C9.2856 5.90571 9.2856 5.9056 9.2856 5.90548C9.2856 5.90537 9.2856 5.90526 9.2856 5.90514C9.2856 5.90503 9.2856 5.90491 9.2856 5.9048C9.2856 5.90469 9.2856 5.90457 9.2856 5.90446C9.2856 5.90434 9.2856 5.90423 9.2856 5.90412C9.2856 5.904 9.2856 5.90389 9.2856 5.90378C9.2856 5.90366 9.2856 5.90355 9.2856 5.90343C9.2856 5.90332 9.2856 5.90321 9.2856 5.90309C9.2856 5.90298 9.2856 5.90287 9.2856 5.90275C9.2856 5.90264 9.2856 5.90253 9.2856 5.90241C9.2856 5.9023 9.2856 5.90218 9.2856 5.90207C9.2856 5.90196 9.2856 5.90184 9.2856 5.90173C9.2856 5.90162 9.2856 5.9015 9.2856 5.90139C9.2856 5.90128 9.2856 5.90116 9.2856 5.90105C9.2856 5.90094 9.2856 5.90082 9.2856 5.90071C9.2856 5.9006 9.2856 5.90048 9.2856 5.90037C9.2856 5.90026 9.2856 5.90014 9.2856 5.90003C9.2856 5.89992 9.2856 5.8998 9.2856 5.89969C9.2856 5.89958 9.2856 5.89946 9.2856 5.89935C9.2856 5.89924 9.2856 5.89913 9.2856 5.89901C9.2856 5.8989 9.2856 5.89879 9.2856 5.89867C9.2856 5.89856 9.2856 5.89845 9.2856 5.89833C9.2856 5.89822 9.2856 5.89811 9.2856 5.898C9.2856 5.89788 9.2856 5.89777 9.2856 5.89766C9.2856 5.89754 9.2856 5.89743 9.2856 5.89732C9.2856 5.89721 9.2856 5.89709 9.2856 5.89698C9.2856 5.89687 9.2856 5.89676 9.2856 5.89664C9.2856 5.89653 9.2856 5.89642 9.2856 5.8963C9.2856 5.89619 9.2856 5.89608 9.2856 5.89597C9.2856 5.89585 9.2856 5.89574 9.2856 5.89563C9.2856 5.89552 9.2856 5.8954 9.2856 5.89529C9.2856 5.89518 9.2856 5.89507 9.2856 5.89495C9.2856 5.89484 9.2856 5.89473 9.2856 5.89462C9.2856 5.8945 9.2856 5.89439 9.2856 5.89428C9.2856 5.89417 9.2856 5.89406 9.2856 5.89394C9.2856 5.89383 9.2856 5.89372 9.2856 5.89361C9.2856 5.89349 9.2856 5.89338 9.2856 5.89327C9.2856 5.89316 9.2856 5.89305 9.2856 5.89293C9.2856 5.89282 9.2856 5.89271 9.2856 5.8926C9.2856 5.89249 9.2856 5.89237 9.2856 5.89226C9.2856 5.89215 9.2856 5.89204 9.2856 5.89193C9.2856 5.89181 9.2856 5.8917 9.2856 5.89159C9.2856 5.89148 9.2856 5.89137 9.2856 5.89126C9.2856 5.89114 9.2856 5.89103 9.2856 5.89092C9.2856 5.89081 9.2856 5.8907 9.2856 5.89058C9.2856 5.89047 9.2856 5.89036 9.2856 5.89025C9.2856 5.89014 9.2856 5.89003 9.2856 5.88992C9.2856 5.8898 9.2856 5.88969 9.2856 5.88958C9.2856 5.88947 9.2856 5.88936 9.2856 5.88925C9.2856 5.88913 9.2856 5.88902 9.2856 5.88891C9.2856 5.8888 9.2856 5.88869 9.2856 5.88858C9.2856 5.88847 9.2856 5.88836 9.2856 5.88824C9.2856 5.88813 9.2856 5.88802 9.2856 5.88791C9.2856 5.8878 9.2856 5.88769 9.2856 5.88758C9.2856 5.88747 9.2856 5.88735 9.2856 5.88724C9.2856 5.88713 9.2856 5.88702 9.2856 5.88691C9.2856 5.8868 9.2856 5.88669 9.2856 5.88658C9.2856 5.88647 9.2856 5.88636 9.2856 5.88624C9.2856 5.88613 9.2856 5.88602 9.2856 5.88591C9.2856 5.8858 9.2856 5.88569 9.2856 5.88558C9.2856 5.88547 9.2856 5.88536 9.2856 5.88525C9.2856 5.88514 9.2856 5.88503 9.2856 5.88491C9.2856 5.8848 9.2856 5.88469 9.2856 5.88458C9.2856 5.88447 9.2856 5.88436 9.2856 5.88425C9.2856 5.88414 9.2856 5.88403 9.2856 5.88392C9.2856 5.88381 9.2856 5.8837 9.2856 5.88359C9.2856 5.88348 9.2856 5.88337 9.2856 5.88326C9.2856 5.88315 9.2856 5.88304 9.2856 5.88293C9.2856 5.88282 9.2856 5.88271 9.2856 5.8826C9.2856 5.88249 9.2856 5.88237 9.2856 5.88226C9.2856 5.88215 9.2856 5.88204 9.2856 5.88193C9.2856 5.88182 9.2856 5.88171 9.2856 5.8816C9.2856 5.88149 9.2856 5.88138 9.2856 5.88127C9.2856 5.88116 9.2856 5.88105 9.2856 5.88094C9.2856 5.88083 9.2856 5.88072 9.2856 5.88061C9.2856 5.8805 9.2856 5.88039 9.2856 5.88028C9.2856 5.88017 9.2856 5.88007 9.2856 5.87996C9.2856 5.87985 9.2856 5.87974 9.2856 5.87963C9.2856 5.87952 9.2856 5.87941 9.2856 5.8793C9.2856 5.87919 9.2856 5.87908 9.2856 5.87897C9.2856 5.87886 9.2856 5.87875 9.2856 5.87864C9.2856 5.87853 9.2856 5.87842 9.2856 5.87831C9.2856 5.8782 9.2856 5.87809 9.2856 5.87798C9.2856 5.87787 9.2856 5.87776 9.2856 5.87766C9.2856 5.87755 9.2856 5.87744 9.2856 5.87733C9.2856 5.87722 9.2856 5.87711 9.2856 5.877C9.2856 5.87689 9.2856 5.87678 9.2856 5.87667C9.2856 5.87656 9.2856 5.87645 9.2856 5.87635C9.2856 5.87624 9.2856 5.87613 9.2856 5.87602C9.2856 5.87591 9.2856 5.8758 9.2856 5.87569C9.2856 5.87558 9.2856 5.87547 9.2856 5.87536C9.2856 5.87526 9.2856 5.87515 9.2856 5.87504C9.2856 5.87493 9.2856 5.87482 9.2856 5.87471C9.2856 5.8746 9.2856 5.87449 9.2856 5.87439C9.2856 5.87428 9.2856 5.87417 9.2856 5.87406C9.2856 5.87395 9.2856 5.87384 9.2856 5.87373C9.2856 5.87363 9.2856 5.87352 9.2856 5.87341C9.2856 5.8733 9.2856 5.87319 9.2856 5.87308C9.2856 5.87298 9.2856 5.87287 9.2856 5.87276C9.2856 5.87265 9.2856 5.87254 9.2856 5.87243C9.2856 5.87233 9.2856 5.87222 9.2856 5.87211C9.2856 5.872 9.2856 5.87189 9.2856 5.87178C9.2856 5.87168 9.2856 5.87157 9.2856 5.87146C9.2856 5.87135 9.2856 5.87124 9.2856 5.87114C9.2856 5.87103 9.2856 5.87092 9.2856 5.87081C9.2856 5.87071 9.2856 5.8706 9.2856 5.87049C9.2856 5.87038 9.2856 5.87027 9.2856 5.87017C9.2856 5.87006 9.2856 5.86995 9.2856 5.86984C9.2856 5.86973 9.2856 5.86963 9.2856 5.86952C9.2856 5.86941 9.2856 5.8693 9.2856 5.8692C9.2856 5.86909 9.2856 5.86898 9.2856 5.86887C9.2856 5.86877 9.2856 5.86866 9.2856 5.86855C9.2856 5.86844 9.2856 5.86834 9.2856 5.86823C9.2856 5.86812 9.2856 5.86802 9.2856 5.86791C9.2856 5.8678 9.2856 5.86769 9.2856 5.86759C9.2856 5.86748 9.2856 5.86737 9.2856 5.86726C9.2856 5.86716 9.2856 5.86705 9.2856 5.86694C9.2856 5.86684 9.2856 5.86673 9.2856 5.86662C9.2856 5.86652 9.2856 5.86641 9.2856 5.8663C9.2856 5.86619 9.2856 5.86609 9.2856 5.86598C9.2856 5.86587 9.2856 5.86577 9.2856 5.86566C9.2856 5.86555 9.2856 5.86545 9.2856 5.86534C9.2856 5.86523 9.2856 5.86513 9.2856 5.86502C9.2856 5.86491 9.2856 5.86481 9.2856 5.8647C9.2856 5.86459 9.2856 5.86449 9.2856 5.86438C9.2856 5.86427 9.2856 5.86417 9.2856 5.86406C9.2856 5.86395 9.2856 5.86385 9.2856 5.86374C9.2856 5.86364 9.2856 5.86353 9.2856 5.86342C9.2856 5.86332 9.2856 5.86321 9.2856 5.8631C9.2856 5.863 9.2856 5.86289 9.2856 5.86279C9.2856 5.86268 9.2856 5.86257 9.2856 5.86247C9.2856 5.86236 9.2856 5.86225 9.2856 5.86215C9.2856 5.86204 9.2856 5.86194 9.2856 5.86183C9.2856 5.86172 9.2856 5.86162 9.2856 5.86151C9.2856 5.86141 9.2856 5.8613 9.2856 5.8612C9.2856 5.86109 9.2856 5.86098 9.2856 5.86088C9.2856 5.86077 9.2856 5.86067 9.2856 5.86056C9.2856 5.86046 9.2856 5.86035 9.2856 5.86024C9.2856 5.86014 9.2856 5.86003 9.2856 5.85993C9.2856 5.85982 9.2856 5.85972 9.2856 5.85961C9.2856 5.85951 9.2856 5.8594 9.2856 5.8593C9.2856 5.85919 9.2856 5.85909 9.2856 5.85898C9.2856 5.85887 9.2856 5.85877 9.2856 5.85866C9.2856 5.85856 9.2856 5.85845 9.2856 5.85835C9.2856 5.85824 9.2856 5.85814 9.2856 5.85803C9.2856 5.85793 9.2856 5.85782 9.2856 5.85772C9.2856 5.85761 9.2856 5.85751 9.2856 5.8574C9.2856 5.8573 9.2856 5.85719 9.2856 5.85709C9.2856 5.85698 9.2856 5.85688 9.2856 5.85678C9.2856 5.85667 9.2856 5.85657 9.2856 5.85646C9.2856 5.85636 9.2856 5.85625 9.2856 5.85615C9.2856 5.85604 9.2856 5.85594 9.2856 5.85583C9.2856 5.85573 9.2856 5.85562 9.2856 5.85552C9.2856 5.85542 9.2856 5.85531 9.2856 5.85521C9.2856 5.8551 9.2856 5.855 9.2856 5.85489C9.2856 5.85479 9.2856 5.85469 9.2856 5.85458C9.2856 5.85448 9.2856 5.85437 9.2856 5.85427C9.2856 5.85416 9.2856 5.85406 9.2856 5.85396C9.2856 5.85385 9.2856 5.85375 9.2856 5.85364C9.2856 5.85354 9.2856 5.85344 9.2856 5.85333C9.2856 5.85323 9.2856 5.85313 9.2856 5.85302C9.2856 5.85292 9.2856 5.85281 9.2856 5.85271C9.2856 5.85261 9.2856 5.8525 9.2856 5.8524C9.2856 5.8523 9.2856 5.85219 9.2856 5.85209C9.2856 5.85198 9.2856 5.85188 9.2856 5.85178C9.2856 5.85167 9.2856 5.85157 9.2856 5.85147C9.2856 5.85136 9.2856 5.85126 9.2856 5.85116C9.2856 5.85105 9.2856 5.85095 9.2856 5.85085C9.2856 5.85074 9.2856 5.85064 9.2856 5.85054C9.2856 5.85044 9.2856 5.85033 9.2856 5.85023C9.2856 5.85013 9.2856 5.85002 9.2856 5.84992C9.2856 5.84982 9.2856 5.84971 9.2856 5.84961C9.2856 5.84951 9.2856 5.8494 9.2856 5.8493C9.2856 5.8492 9.2856 5.8491 9.2856 5.84899C9.2856 5.84889 9.2856 5.84879 9.2856 5.84869C9.2856 5.84858 9.2856 5.84848 9.2856 5.84838C9.2856 5.84828 9.2856 5.84817 9.2856 5.84807C9.2856 5.84797 9.2856 5.84786 9.2856 5.84776C9.2856 5.84766 9.2856 5.84756 9.2856 5.84746C9.2856 5.84735 9.2856 5.84725 9.2856 5.84715C9.2856 5.84705 9.2856 5.84694 9.2856 5.84684C9.2856 5.84674 9.2856 5.84664 9.2856 5.84654C9.2856 5.84643 9.2856 5.84633 9.2856 5.84623C9.2856 5.84613 9.2856 5.84603 9.2856 5.84592C9.2856 5.84582 9.2856 5.84572 9.2856 5.84562C9.2856 5.84552 9.2856 5.84541 9.2856 5.84531C9.2856 5.84521 9.2856 5.84511 9.2856 5.84501C9.2856 5.84491 9.2856 5.8448 9.2856 5.8447C9.2856 5.8446 9.2856 5.8445 9.2856 5.8444C9.2856 5.8443 9.2856 5.84419 9.2856 5.84409C9.2856 5.84399 9.2856 5.84389 9.2856 5.84379C9.2856 5.84369 9.2856 5.84359 9.2856 5.84348C9.2856 5.84338 9.2856 5.84328 9.2856 5.84318C9.2856 5.84308 9.2856 5.84298 9.2856 5.84288C9.2856 5.84278 9.2856 5.84268 9.2856 5.84257C9.2856 5.84247 9.2856 5.84237 9.2856 5.84227C9.2856 5.84217 9.2856 5.84207 9.2856 5.84197C9.2856 5.84187 9.2856 5.84177 9.2856 5.84167C9.2856 5.84157 9.2856 5.84146 9.2856 5.84136C9.2856 5.84126 9.2856 5.84116 9.2856 5.84106C9.2856 5.84096 9.2856 5.84086 9.2856 5.84076C9.2856 5.84066 9.2856 5.84056 9.2856 5.84046C9.2856 5.84036 9.2856 5.84026 9.2856 5.84016C9.2856 5.84006 9.2856 5.83996 9.2856 5.83986C9.2856 5.83976 9.2856 5.83966 9.2856 5.83956C9.2856 5.83946 9.2856 5.83936 9.2856 5.83926C9.2856 5.83916 9.2856 5.83906 9.2856 5.83896C9.2856 5.83886 9.2856 5.83876 9.2856 5.83866C9.2856 5.83856 9.2856 5.83846 9.2856 5.83836C9.2856 5.83826 9.2856 5.83816 9.2856 5.83806C9.2856 5.83796 9.2856 5.83786 9.2856 5.83776C9.2856 5.83766 9.2856 5.83756 9.2856 5.83746C9.2856 5.83736 9.2856 5.83726 9.2856 5.83716C9.2856 5.83706 9.2856 5.83696 9.2856 5.83686C9.2856 5.83676 9.2856 5.83666 9.2856 5.83656C9.2856 5.83647 9.2856 5.83637 9.2856 5.83627C9.2856 5.83617 9.2856 5.83607 9.2856 5.83597C9.2856 5.83587 9.2856 5.83577 9.2856 5.83567C9.2856 5.83557 9.2856 5.83547 9.2856 5.83538C9.2856 5.83528 9.2856 5.83518 9.2856 5.83508C9.2856 5.83498 9.2856 5.83488 9.2856 5.83478C9.2856 5.83468 9.2856 5.83458 9.2856 5.83449C9.2856 5.83439 9.2856 5.83429 9.2856 5.83419C9.2856 5.83409 9.2856 5.83399 9.2856 5.83389C9.2856 5.8338 9.2856 5.8337 9.2856 5.8336C9.2856 5.8335 9.2856 5.8334 9.2856 5.8333C9.2856 5.83321 9.2856 5.83311 9.2856 5.83301C9.2856 5.83291 9.2856 5.83281 9.2856 5.83272C9.2856 5.83262 9.2856 5.83252 9.2856 5.83242C9.2856 5.83232 9.2856 5.83222 9.2856 5.83213C9.2856 5.83203 9.2856 5.83193 9.2856 5.83183C9.2856 5.83174 9.2856 5.83164 9.2856 5.83154C9.2856 5.83144 9.2856 5.83134 9.2856 5.83125C9.2856 5.83115 9.2856 5.83105 9.2856 5.83095C9.2856 5.83086 9.2856 5.83076 9.2856 5.83066C9.2856 5.83056 9.2856 5.83047 9.2856 5.83037C9.2856 5.83027 9.2856 5.83017 9.2856 5.83008C9.2856 5.82998 9.2856 5.82988 9.2856 5.82979C9.2856 5.82969 9.2856 5.82959 9.2856 5.82949C9.2856 5.8294 9.2856 5.8293 9.2856 5.8292C9.2856 5.82911 9.2856 5.82901 9.2856 5.82891C9.2856 5.82881 9.2856 5.82872 9.2856 5.82862C9.2856 5.82852 9.2856 5.82843 9.2856 5.82833C9.2856 5.82823 9.2856 5.82814 9.2856 5.82804C9.2856 5.82794 9.2856 5.82785 9.2856 5.82775C9.2856 5.82765 9.2856 5.82756 9.2856 5.82746H7.2856ZM7.28807 5.93004C7.26978 6.18979 7.19024 6.58028 6.8969 6.87416L8.31241 8.28707C9.10353 7.49449 9.25099 6.5269 9.28313 6.07057L7.28807 5.93004ZM6.90677 6.86441L4.25866 9.44476L5.65443 10.8772L8.30254 8.29683L6.90677 6.86441ZM5.95654 10.161V9.17328H3.95654V10.161H5.95654ZM5.65613 9.88782L6.66494 8.90013L5.26576 7.47104L4.25695 8.45873L5.65613 9.88782ZM6.96522 8.20179L6.97782 7.42398L4.97809 7.39157L4.96548 8.16938L6.96522 8.20179ZM5.27399 6.69753L4.25258 7.70992L5.6605 9.1304L6.68192 8.11801L5.27399 6.69753ZM5.95654 8.42016V7.44481H3.95654V8.42016H5.95654ZM5.6577 8.15782L8.52019 5.34289L7.11788 3.91688L4.25538 6.73181L5.6577 8.15782ZM7.11944 5.34443C7.14465 5.36911 7.16986 5.39379 7.19508 5.41848C7.2203 5.44317 7.24553 5.46788 7.27076 5.49258L8.66994 4.06349C8.64473 4.03881 8.61952 4.01413 8.5943 3.98944C8.56909 3.96475 8.54386 3.94004 8.51863 3.91534L7.11944 5.34443ZM7.27076 5.49258C7.25028 5.47253 7.23622 5.45518 7.2275 5.44328C7.22314 5.43733 7.22004 5.43263 7.21807 5.4295C7.21609 5.42637 7.21516 5.42466 7.21515 5.42463C7.21513 5.4246 7.21594 5.42608 7.21746 5.42928C7.21897 5.43249 7.22112 5.43724 7.2238 5.44372C7.22923 5.45682 7.23638 5.47584 7.24469 5.50187L9.14999 4.89374C9.06216 4.61856 8.92175 4.31003 8.66994 4.06349L7.27076 5.49258ZM7.48828 4.49265L6.55514 5.43096L7.97324 6.84127L8.90639 5.90296L7.48828 4.49265ZM6.55908 5.42701L5.75204 6.22952L7.16225 7.64772L7.9693 6.84522L6.55908 5.42701ZM5.45727 6.92266L5.44466 7.71282L7.44441 7.74473L7.45702 6.95457L5.45727 6.92266ZM7.14413 8.44331L7.79985 7.80131L6.40066 6.37223L5.74494 7.01423L7.14413 8.44331ZM7.79984 7.80132C7.80734 7.79398 7.84484 7.75783 7.88213 7.7161C7.91758 7.67643 7.99117 7.59033 8.05389 7.46751L6.27272 6.55788C6.29957 6.50529 6.3265 6.46543 6.34557 6.43944C6.36489 6.41313 6.38139 6.39399 6.39088 6.38337C6.40611 6.36633 6.41838 6.35488 6.40066 6.37223L7.79984 7.80132ZM7.88943 7.70026L9.01172 6.51503L7.55948 5.1399L6.43718 6.32513L7.88943 7.70026Z" fill="#DDB152" mask="url(#path-5-inside-3_315_639)"/>
<mask id="path-7-inside-4_315_639" fill="white">
<path d="M4.65387 1.46924L5.12045 1.93839L4.25035 2.80262L4.65387 3.1977L5.53657 2.33347L6.00315 2.80262L4.65387 4.13601L3.29199 2.80262L4.65387 1.46924Z"/>
</mask>
<path d="M4.65387 1.46924L5.12045 1.93839L4.25035 2.80262L4.65387 3.1977L5.53657 2.33347L6.00315 2.80262L4.65387 4.13601L3.29199 2.80262L4.65387 1.46924Z" fill="white"/>
<path d="M4.65387 1.46924L5.36292 0.764078L4.66325 0.0605538L3.95428 0.754697L4.65387 1.46924ZM5.12045 1.93839L5.82516 2.64789L6.5351 1.94273L5.8295 1.23323L5.12045 1.93839ZM4.25035 2.80262L3.54564 2.09313L2.82618 2.80774L3.55076 3.51716L4.25035 2.80262ZM4.65387 3.1977L3.95427 3.91224L4.65386 4.5972L5.35346 3.91225L4.65387 3.1977ZM5.53657 2.33347L6.24562 1.62831L5.54596 0.924788L4.83698 1.61893L5.53657 2.33347ZM6.00315 2.80262L6.70606 3.51391L7.41961 2.80877L6.7122 2.09746L6.00315 2.80262ZM4.65387 4.13601L3.95428 4.85055L4.65713 5.5387L5.35677 4.8473L4.65387 4.13601ZM3.29199 2.80262L2.5924 2.08808L1.86259 2.80262L2.5924 3.51717L3.29199 2.80262ZM3.94482 2.1744L4.4114 2.64355L5.8295 1.23323L5.36292 0.764078L3.94482 2.1744ZM4.41574 1.2289L3.54564 2.09313L4.95507 3.51212L5.82516 2.64789L4.41574 1.2289ZM3.55076 3.51716L3.95427 3.91224L5.35347 2.48317L4.94995 2.08809L3.55076 3.51716ZM5.35346 3.91225L6.23616 3.04801L4.83698 1.61893L3.95428 2.48316L5.35346 3.91225ZM4.82753 3.03863L5.29411 3.50778L6.7122 2.09746L6.24562 1.62831L4.82753 3.03863ZM5.30025 2.09134L3.95097 3.42473L5.35677 4.8473L6.70606 3.51391L5.30025 2.09134ZM5.35346 3.42147L3.99159 2.08808L2.5924 3.51717L3.95428 4.85055L5.35346 3.42147ZM3.99159 3.51717L5.35346 2.18378L3.95428 0.754697L2.5924 2.08808L3.99159 3.51717Z" fill="#DDB152" mask="url(#path-7-inside-4_315_639)"/>
<mask id="path-9-inside-5_315_639" fill="white">
<path d="M4.65386 0L1.79138 2.80258L4.65386 5.60516L7.51635 2.80258L4.65386 0ZM2.67409 2.80258L4.65386 0.864232L6.63365 2.80258L4.65386 4.74093L2.67409 2.80258Z"/>
</mask>
<path d="M4.65386 0L1.79138 2.80258L4.65386 5.60516L7.51635 2.80258L4.65386 0ZM2.67409 2.80258L4.65386 0.864232L6.63365 2.80258L4.65386 4.74093L2.67409 2.80258Z" fill="white"/>
<path d="M4.65386 0L5.35345 -0.714545L4.65386 -1.39949L3.95427 -0.714543L4.65386 0ZM1.79138 2.80258L1.09179 2.08804L0.361977 2.80258L1.09179 3.51712L1.79138 2.80258ZM4.65386 5.60516L3.95427 6.31971L4.65386 7.00466L5.35345 6.31971L4.65386 5.60516ZM7.51635 2.80258L8.21594 3.51713L8.94576 2.80258L8.21594 2.08804L7.51635 2.80258ZM2.67409 2.80258L1.97449 2.08804L1.24468 2.80258L1.97449 3.51712L2.67409 2.80258ZM4.65386 0.864232L5.35345 0.149687L4.65386 -0.535262L3.95427 0.14969L4.65386 0.864232ZM6.63365 2.80258L7.33324 3.51713L8.06306 2.80258L7.33324 2.08804L6.63365 2.80258ZM4.65386 4.74093L3.95427 5.45547L4.65386 6.14043L5.35345 5.45548L4.65386 4.74093ZM3.95427 -0.714543L1.09179 2.08804L2.49097 3.51712L5.35345 0.714543L3.95427 -0.714543ZM1.09179 3.51712L3.95427 6.31971L5.35345 4.89062L2.49097 2.08804L1.09179 3.51712ZM5.35345 6.31971L8.21594 3.51713L6.81676 2.08804L3.95427 4.89062L5.35345 6.31971ZM8.21594 2.08804L5.35345 -0.714545L3.95427 0.714545L6.81676 3.51713L8.21594 2.08804ZM3.37368 3.51712L5.35345 1.57877L3.95427 0.14969L1.97449 2.08804L3.37368 3.51712ZM3.95427 1.57878L5.93406 3.51713L7.33324 2.08804L5.35345 0.149687L3.95427 1.57878ZM5.93406 2.08804L3.95427 4.02639L5.35345 5.45548L7.33324 3.51713L5.93406 2.08804ZM5.35345 4.02639L3.37368 2.08804L1.97449 3.51712L3.95427 5.45547L5.35345 4.02639Z" fill="#DDB152" mask="url(#path-9-inside-5_315_639)"/>
</svg>
