<svg width="49" height="48" viewBox="0 0 49 48" fill="none" xmlns="http://www.w3.org/2000/svg">
<g clip-path="url(#clip0_1_1474)">
<path d="M24.5 28.9214C27.2183 28.9214 29.4219 26.7178 29.4219 23.9995C29.4219 21.2812 27.2183 19.0776 24.5 19.0776C21.7817 19.0776 19.5781 21.2812 19.5781 23.9995C19.5781 26.7178 21.7817 28.9214 24.5 28.9214Z" fill="white"/>
<path d="M24.5 0.562012C11.5558 0.562012 1.0625 11.0554 1.0625 23.9995C1.0625 36.9437 11.5558 47.437 24.5 47.437C37.4442 47.437 47.9375 36.9437 47.9375 23.9995C47.9375 11.0554 37.4442 0.562012 24.5 0.562012ZM38.9804 29.9564C38.8679 32.1846 38.2418 34.382 36.6179 35.9885C34.9783 37.6104 32.7706 38.2147 30.5209 38.3261H18.4792C16.2292 38.2147 14.0217 37.6108 12.3822 35.9885C10.7582 34.382 10.1322 32.1846 10.0197 29.9564V18.0426C10.1322 15.8144 10.7583 13.6171 12.3822 12.0104C14.0217 10.3885 16.2295 9.7842 18.4792 9.67292H30.5208C32.7708 9.7842 34.9782 10.3882 36.6178 12.0104C38.2418 13.6171 38.8678 15.8144 38.9803 18.0426L38.9804 29.9564Z" fill="white"/>
<path d="M30.3687 12.3875C27.4357 12.307 21.5651 12.307 18.632 12.3875C17.1056 12.4294 15.3753 12.8094 14.2878 13.9709C13.1577 15.1783 12.7307 16.6371 12.6874 18.269C12.6113 21.1332 12.6874 29.7301 12.6874 29.7301C12.737 31.3618 13.1577 32.8208 14.2878 34.0282C15.3753 35.1901 17.1056 35.5697 18.632 35.6116C21.5651 35.692 27.4357 35.692 30.3687 35.6116C31.8951 35.5697 33.6254 35.1897 34.7129 34.0282C35.843 32.8208 36.27 31.362 36.3133 29.7301V18.269C36.27 16.6371 35.843 15.1783 34.7129 13.9709C33.6251 12.809 31.8947 12.4294 30.3687 12.3875ZM24.5 31.6284C22.9911 31.6284 21.5162 31.181 20.2616 30.3427C19.007 29.5045 18.0292 28.313 17.4518 26.919C16.8744 25.525 16.7233 23.9911 17.0177 22.5112C17.312 21.0314 18.0386 19.672 19.1055 18.6051C20.1725 17.5382 21.5318 16.8116 23.0117 16.5172C24.4915 16.2229 26.0254 16.3739 27.4194 16.9513C28.8134 17.5288 30.0049 18.5066 30.8432 19.7611C31.6815 21.0157 32.1289 22.4907 32.1289 23.9995C32.1289 26.0229 31.3251 27.9633 29.8944 29.394C28.4637 30.8247 26.5233 31.6284 24.5 31.6284ZM32.1613 17.9454C31.8596 17.9453 31.5646 17.8557 31.3138 17.688C31.0629 17.5203 30.8674 17.282 30.752 17.0032C30.6365 16.7244 30.6064 16.4176 30.6653 16.1217C30.7242 15.8257 30.8696 15.5539 31.083 15.3405C31.2964 15.1272 31.5682 14.9819 31.8642 14.9231C32.1601 14.8642 32.4669 14.8945 32.7457 15.01C33.0245 15.1255 33.2627 15.321 33.4304 15.5719C33.598 15.8228 33.6875 16.1178 33.6875 16.4196C33.6875 16.62 33.648 16.8184 33.5713 17.0035C33.4946 17.1887 33.3822 17.3569 33.2405 17.4986C33.0987 17.6403 32.9305 17.7527 32.7453 17.8293C32.5602 17.906 32.3617 17.9454 32.1613 17.9454Z" fill="white"/>
</g>
<defs>
<clipPath id="clip0_1_1474">
<rect width="48" height="48" fill="white" transform="translate(0.5 -0.000488281)"/>
</clipPath>
</defs>
</svg>
