<svg width="32" height="32" viewBox="0 0 32 32" fill="none" xmlns="http://www.w3.org/2000/svg">
<path d="M28 13.3328C28 22.6661 16 30.6661 16 30.6661C16 30.6661 4 22.6661 4 13.3328C4 10.1502 5.26428 7.09792 7.51472 4.84748C9.76515 2.59705 12.8174 1.33276 16 1.33276C19.1826 1.33276 22.2348 2.59705 24.4853 4.84748C26.7357 7.09792 28 10.1502 28 13.3328Z" fill="url(#paint0_linear_1_1453)"/>
<path d="M16 17.3328C18.2091 17.3328 20 15.5419 20 13.3328C20 11.1236 18.2091 9.33276 16 9.33276C13.7909 9.33276 12 11.1236 12 13.3328C12 15.5419 13.7909 17.3328 16 17.3328Z" fill="white"/>
<defs>
<linearGradient id="paint0_linear_1_1453" x1="4" y1="15.9994" x2="28" y2="15.9994" gradientUnits="userSpaceOnUse">
<stop stop-color="#2E3192"/>
<stop offset="1" stop-color="#1BFFFF"/>
</linearGradient>
</defs>
</svg>
