<svg width="16" height="11" viewBox="0 0 16 11" fill="none" xmlns="http://www.w3.org/2000/svg">
<path d="M0 0.878174C0 0.745566 0.0526784 0.618388 0.146447 0.52462C0.240215 0.430852 0.367392 0.378174 0.5 0.378174H15.5C15.6326 0.378174 15.7598 0.430852 15.8536 0.52462C15.9473 0.618388 16 0.745566 16 0.878174C16 1.01078 15.9473 1.13796 15.8536 1.23173C15.7598 1.3255 15.6326 1.37817 15.5 1.37817H0.5C0.367392 1.37817 0.240215 1.3255 0.146447 1.23173C0.0526784 1.13796 0 1.01078 0 0.878174ZM15.5 5.03189H0.5C0.367392 5.03189 0.240215 5.08457 0.146447 5.17834C0.0526784 5.27211 0 5.39928 0 5.53189C0 5.6645 0.0526784 5.79168 0.146447 5.88545C0.240215 5.97921 0.367392 6.03189 0.5 6.03189H15.5C15.6326 6.03189 15.7598 5.97921 15.8536 5.88545C15.9473 5.79168 16 5.6645 16 5.53189C16 5.39928 15.9473 5.27211 15.8536 5.17834C15.7598 5.08457 15.6326 5.03189 15.5 5.03189ZM8 9.68561H0.5C0.367392 9.68561 0.240215 9.73829 0.146447 9.83206C0.0526784 9.92583 0 10.053 0 10.1856C0 10.3182 0.0526784 10.4454 0.146447 10.5392C0.240215 10.6329 0.367392 10.6856 0.5 10.6856H8C8.13261 10.6856 8.25979 10.6329 8.35355 10.5392C8.44732 10.4454 8.5 10.3182 8.5 10.1856C8.5 10.053 8.44732 9.92583 8.35355 9.83206C8.25979 9.73829 8.13261 9.68561 8 9.68561Z" fill="white"/>
</svg>
