<svg width="1600" height="6634" viewBox="0 0 1600 6634" fill="none" xmlns="http://www.w3.org/2000/svg">
<g clip-path="url(#clip0_43_832)">
<rect width="1600" height="6634" fill="#222222"/>
<g filter="url(#filter0_f_43_832)">
<circle cx="32.5" cy="1880.5" r="387.5" fill="url(#paint0_radial_43_832)" fill-opacity="0.15"/>
</g>
<g filter="url(#filter1_f_43_832)">
<circle cx="1333.5" cy="3267.5" r="530.5" fill="url(#paint1_radial_43_832)" fill-opacity="0.15"/>
</g>
<g opacity="0.05">
<path d="M1834.12 5680.22C1786.99 5632.71 1783.31 5627.51 1783.31 5627.51L1599.23 5814.57L1408.51 5626.77C1312.79 5696.55 1302.48 5853.17 1366.54 5917.75C1430.6 5982.33 1599.96 6148.61 1599.96 6148.61L1812.76 5934.08C1886.4 5860.6 1886.4 5732.92 1834.12 5680.22ZM1784.78 5906.62L1599.96 6092.94C1549.16 6043.2 1442.39 5937.79 1395.26 5889.54C1374.64 5868.76 1363.6 5828.68 1366.54 5785.62C1369.49 5745.54 1384.95 5709.17 1407.78 5681.7L1594.81 5869.5L1783.31 5683.93C1789.94 5690.61 1798.04 5698.77 1806.87 5707.68C1840.74 5743.31 1845.16 5845.75 1784.78 5906.62Z" fill="url(#paint2_linear_43_832)"/>
<path d="M1439.44 5845.02C1435.02 5840.56 1426.93 5822 1429.13 5793.05L1582.29 5942.26V5882.87L1409.99 5714.37C1397.47 5735.15 1389.37 5760.39 1387.16 5787.12C1384.22 5823.49 1393.05 5857.63 1409.25 5873.97C1448.28 5913.31 1528.54 5993.48 1581.56 6045.44V5986.05C1531.48 5937.8 1471.84 5877.68 1439.44 5845.02Z" fill="url(#paint3_linear_43_832)"/>
<path d="M1597.75 5524.33L1625 5552.54L1574.19 5604.5L1597.75 5628.26L1649.3 5576.3L1676.54 5604.5L1597.75 5684.67L1518.23 5604.5L1597.75 5524.33Z" fill="url(#paint4_linear_43_832)"/>
<path d="M1597.75 5436L1430.61 5604.5L1597.75 5773.01L1764.9 5604.5L1597.75 5436ZM1482.15 5604.5L1597.75 5487.96L1713.36 5604.5L1597.75 5721.04L1482.15 5604.5Z" fill="url(#paint5_linear_43_832)"/>
</g>
<g filter="url(#filter2_f_43_832)">
<circle cx="1283.5" cy="5574.5" r="502.5" fill="url(#paint6_radial_43_832)" fill-opacity="0.1"/>
</g>
<g filter="url(#filter3_f_43_832)">
<circle cx="798.5" cy="5476.5" r="530.5" fill="url(#paint7_radial_43_832)" fill-opacity="0.1"/>
</g>
<g filter="url(#filter4_f_43_832)">
<circle cx="1430.5" cy="1416.5" r="245.5" fill="url(#paint8_radial_43_832)" fill-opacity="0.25"/>
</g>
<g filter="url(#filter5_f_43_832)">
<circle cx="85.5" cy="1449.5" r="454.5" fill="url(#paint9_radial_43_832)" fill-opacity="0.15"/>
</g>
<g filter="url(#filter6_f_43_832)">
<circle cx="153" cy="2558" r="583" fill="url(#paint10_radial_43_832)" fill-opacity="0.1"/>
</g>
<g filter="url(#filter7_f_43_832)">
<circle cx="1518" cy="2132" r="583" fill="url(#paint11_radial_43_832)" fill-opacity="0.15"/>
</g>
<g filter="url(#filter8_f_43_832)">
<circle cx="233" cy="3479" r="583" fill="url(#paint12_radial_43_832)" fill-opacity="0.15"/>
</g>
<g filter="url(#filter9_f_43_832)">
<circle cx="1013" cy="3843" r="385" fill="url(#paint13_radial_43_832)" fill-opacity="0.15"/>
</g>
<g filter="url(#filter10_f_43_832)">
<circle cx="215" cy="5276" r="583" fill="url(#paint14_radial_43_832)" fill-opacity="0.15"/>
</g>
<g filter="url(#filter11_f_43_832)">
<circle cx="1118" cy="6274" r="356" fill="url(#paint15_radial_43_832)" fill-opacity="0.15"/>
</g>
<g filter="url(#filter12_f_43_832)">
<circle cx="217.5" cy="5942.5" r="459.5" fill="url(#paint16_radial_43_832)" fill-opacity="0.25"/>
</g>
<g filter="url(#filter13_f_43_832)">
<circle cx="1431" cy="4879" r="331" fill="url(#paint17_radial_43_832)" fill-opacity="0.15"/>
</g>
<g opacity="0.02">
<path d="M186.504 1857.16C149.302 1819.71 146.395 1815.62 146.395 1815.62L1.07349 1963.05L-149.48 1815.03C-225.047 1870.03 -233.185 1993.47 -182.613 2044.37C-132.041 2095.27 1.65463 2226.33 1.65463 2226.33L169.646 2057.24C227.775 1999.32 227.775 1898.69 186.504 1857.16ZM147.557 2035.6L1.65463 2182.45C-38.4541 2143.25 -122.741 2060.17 -159.943 2022.14C-176.219 2005.76 -184.938 1974.17 -182.613 1940.23C-180.288 1908.64 -168.081 1879.97 -150.061 1858.33L-2.41409 2006.34L146.395 1860.08C151.627 1865.35 158.02 1871.78 164.996 1878.8C191.735 1906.89 195.223 1987.62 147.557 2035.6Z" fill="url(#paint18_linear_43_832)"/>
<path d="M167.321 1940.83C167.321 1943.17 167.321 1946.09 167.321 1949.02C166.158 1965.98 160.927 1998.16 135.931 2023.9L13.8614 2146.18V2099.38L60.3643 2052.57L60.9454 2015.71L13.8614 2063.69V2017.47L145.814 1884.08C148.139 1886.42 150.464 1888.76 152.789 1891.1C156.858 1895.19 160.346 1901.63 163.252 1910.99L120.237 1955.45L83.0346 1993.48L82.4534 2030.92L112.68 2000.5C113.843 1999.33 115.005 1998.16 115.586 1996.99L167.321 1940.83Z" fill="url(#paint19_linear_43_832)"/>
<path d="M-0.0895729 1734.3L21.4184 1756.53L-18.6904 1797.48L-0.0895729 1816.2L40.6004 1775.25L62.1085 1797.48L-0.0895729 1860.67L-62.868 1797.48L-0.0895729 1734.3Z" fill="url(#paint20_linear_43_832)"/>
<path d="M-0.0892487 1664.67L-132.041 1797.48L-0.0892487 1930.29L131.863 1797.48L-0.0892487 1664.67ZM-91.3509 1797.48L-0.0892487 1705.63L91.1731 1797.48L-0.0892487 1889.34L-91.3509 1797.48Z" fill="url(#paint21_linear_43_832)"/>
</g>
</g>
<defs>
<filter id="filter0_f_43_832" x="-557" y="1291" width="1179" height="1179" filterUnits="userSpaceOnUse" color-interpolation-filters="sRGB">
<feFlood flood-opacity="0" result="BackgroundImageFix"/>
<feBlend mode="normal" in="SourceGraphic" in2="BackgroundImageFix" result="shape"/>
<feGaussianBlur stdDeviation="101" result="effect1_foregroundBlur_43_832"/>
</filter>
<filter id="filter1_f_43_832" x="601" y="2535" width="1465" height="1465" filterUnits="userSpaceOnUse" color-interpolation-filters="sRGB">
<feFlood flood-opacity="0" result="BackgroundImageFix"/>
<feBlend mode="normal" in="SourceGraphic" in2="BackgroundImageFix" result="shape"/>
<feGaussianBlur stdDeviation="101" result="effect1_foregroundBlur_43_832"/>
</filter>
<filter id="filter2_f_43_832" x="579" y="4870" width="1409" height="1409" filterUnits="userSpaceOnUse" color-interpolation-filters="sRGB">
<feFlood flood-opacity="0" result="BackgroundImageFix"/>
<feBlend mode="normal" in="SourceGraphic" in2="BackgroundImageFix" result="shape"/>
<feGaussianBlur stdDeviation="101" result="effect1_foregroundBlur_43_832"/>
</filter>
<filter id="filter3_f_43_832" x="66" y="4744" width="1465" height="1465" filterUnits="userSpaceOnUse" color-interpolation-filters="sRGB">
<feFlood flood-opacity="0" result="BackgroundImageFix"/>
<feBlend mode="normal" in="SourceGraphic" in2="BackgroundImageFix" result="shape"/>
<feGaussianBlur stdDeviation="101" result="effect1_foregroundBlur_43_832"/>
</filter>
<filter id="filter4_f_43_832" x="983" y="969" width="895" height="895" filterUnits="userSpaceOnUse" color-interpolation-filters="sRGB">
<feFlood flood-opacity="0" result="BackgroundImageFix"/>
<feBlend mode="normal" in="SourceGraphic" in2="BackgroundImageFix" result="shape"/>
<feGaussianBlur stdDeviation="101" result="effect1_foregroundBlur_43_832"/>
</filter>
<filter id="filter5_f_43_832" x="-571" y="793" width="1313" height="1313" filterUnits="userSpaceOnUse" color-interpolation-filters="sRGB">
<feFlood flood-opacity="0" result="BackgroundImageFix"/>
<feBlend mode="normal" in="SourceGraphic" in2="BackgroundImageFix" result="shape"/>
<feGaussianBlur stdDeviation="101" result="effect1_foregroundBlur_43_832"/>
</filter>
<filter id="filter6_f_43_832" x="-632" y="1773" width="1570" height="1570" filterUnits="userSpaceOnUse" color-interpolation-filters="sRGB">
<feFlood flood-opacity="0" result="BackgroundImageFix"/>
<feBlend mode="normal" in="SourceGraphic" in2="BackgroundImageFix" result="shape"/>
<feGaussianBlur stdDeviation="101" result="effect1_foregroundBlur_43_832"/>
</filter>
<filter id="filter7_f_43_832" x="733" y="1347" width="1570" height="1570" filterUnits="userSpaceOnUse" color-interpolation-filters="sRGB">
<feFlood flood-opacity="0" result="BackgroundImageFix"/>
<feBlend mode="normal" in="SourceGraphic" in2="BackgroundImageFix" result="shape"/>
<feGaussianBlur stdDeviation="101" result="effect1_foregroundBlur_43_832"/>
</filter>
<filter id="filter8_f_43_832" x="-552" y="2694" width="1570" height="1570" filterUnits="userSpaceOnUse" color-interpolation-filters="sRGB">
<feFlood flood-opacity="0" result="BackgroundImageFix"/>
<feBlend mode="normal" in="SourceGraphic" in2="BackgroundImageFix" result="shape"/>
<feGaussianBlur stdDeviation="101" result="effect1_foregroundBlur_43_832"/>
</filter>
<filter id="filter9_f_43_832" x="426" y="3256" width="1174" height="1174" filterUnits="userSpaceOnUse" color-interpolation-filters="sRGB">
<feFlood flood-opacity="0" result="BackgroundImageFix"/>
<feBlend mode="normal" in="SourceGraphic" in2="BackgroundImageFix" result="shape"/>
<feGaussianBlur stdDeviation="101" result="effect1_foregroundBlur_43_832"/>
</filter>
<filter id="filter10_f_43_832" x="-570" y="4491" width="1570" height="1570" filterUnits="userSpaceOnUse" color-interpolation-filters="sRGB">
<feFlood flood-opacity="0" result="BackgroundImageFix"/>
<feBlend mode="normal" in="SourceGraphic" in2="BackgroundImageFix" result="shape"/>
<feGaussianBlur stdDeviation="101" result="effect1_foregroundBlur_43_832"/>
</filter>
<filter id="filter11_f_43_832" x="642" y="5798" width="952" height="952" filterUnits="userSpaceOnUse" color-interpolation-filters="sRGB">
<feFlood flood-opacity="0" result="BackgroundImageFix"/>
<feBlend mode="normal" in="SourceGraphic" in2="BackgroundImageFix" result="shape"/>
<feGaussianBlur stdDeviation="60" result="effect1_foregroundBlur_43_832"/>
</filter>
<filter id="filter12_f_43_832" x="-444" y="5281" width="1323" height="1323" filterUnits="userSpaceOnUse" color-interpolation-filters="sRGB">
<feFlood flood-opacity="0" result="BackgroundImageFix"/>
<feBlend mode="normal" in="SourceGraphic" in2="BackgroundImageFix" result="shape"/>
<feGaussianBlur stdDeviation="101" result="effect1_foregroundBlur_43_832"/>
</filter>
<filter id="filter13_f_43_832" x="898" y="4346" width="1066" height="1066" filterUnits="userSpaceOnUse" color-interpolation-filters="sRGB">
<feFlood flood-opacity="0" result="BackgroundImageFix"/>
<feBlend mode="normal" in="SourceGraphic" in2="BackgroundImageFix" result="shape"/>
<feGaussianBlur stdDeviation="101" result="effect1_foregroundBlur_43_832"/>
</filter>
<radialGradient id="paint0_radial_43_832" cx="0" cy="0" r="1" gradientUnits="userSpaceOnUse" gradientTransform="translate(32.5 1880.5) rotate(90) scale(387.5)">
<stop stop-color="#0066FF"/>
<stop offset="1" stop-color="#0066FF" stop-opacity="0"/>
</radialGradient>
<radialGradient id="paint1_radial_43_832" cx="0" cy="0" r="1" gradientUnits="userSpaceOnUse" gradientTransform="translate(1333.5 3267.5) rotate(90) scale(530.5)">
<stop stop-color="#0066FF"/>
<stop offset="1" stop-color="#0066FF" stop-opacity="0"/>
</radialGradient>
<linearGradient id="paint2_linear_43_832" x1="1326" y1="5887.69" x2="1871" y2="5887.69" gradientUnits="userSpaceOnUse">
<stop stop-color="#2E3192"/>
<stop offset="1" stop-color="#1BFFFF"/>
</linearGradient>
<linearGradient id="paint3_linear_43_832" x1="1386.6" y1="5879.9" x2="1582.29" y2="5879.9" gradientUnits="userSpaceOnUse">
<stop stop-color="#2E3192"/>
<stop offset="1" stop-color="#1BFFFF"/>
</linearGradient>
<linearGradient id="paint4_linear_43_832" x1="1518.23" y1="5604.5" x2="1676.54" y2="5604.5" gradientUnits="userSpaceOnUse">
<stop stop-color="#2E3192"/>
<stop offset="1" stop-color="#1BFFFF"/>
</linearGradient>
<linearGradient id="paint5_linear_43_832" x1="1430.61" y1="5604.5" x2="1764.9" y2="5604.5" gradientUnits="userSpaceOnUse">
<stop stop-color="#2E3192"/>
<stop offset="1" stop-color="#1BFFFF"/>
</linearGradient>
<radialGradient id="paint6_radial_43_832" cx="0" cy="0" r="1" gradientUnits="userSpaceOnUse" gradientTransform="translate(1283.5 5574.5) rotate(90) scale(502.5)">
<stop stop-color="#0066FF"/>
<stop offset="1" stop-color="#0066FF" stop-opacity="0"/>
</radialGradient>
<radialGradient id="paint7_radial_43_832" cx="0" cy="0" r="1" gradientUnits="userSpaceOnUse" gradientTransform="translate(798.5 5476.5) rotate(90) scale(530.5)">
<stop stop-color="#FF3D00"/>
<stop offset="1" stop-color="#FF3D00" stop-opacity="0"/>
</radialGradient>
<radialGradient id="paint8_radial_43_832" cx="0" cy="0" r="1" gradientUnits="userSpaceOnUse" gradientTransform="translate(1430.5 1416.5) rotate(90) scale(245.5)">
<stop stop-color="#00C2FF"/>
<stop offset="1" stop-color="#0066FF" stop-opacity="0"/>
</radialGradient>
<radialGradient id="paint9_radial_43_832" cx="0" cy="0" r="1" gradientUnits="userSpaceOnUse" gradientTransform="translate(85.5 1449.5) rotate(90) scale(454.5)">
<stop stop-color="#FF9900"/>
<stop offset="1" stop-color="#FF9900" stop-opacity="0"/>
</radialGradient>
<radialGradient id="paint10_radial_43_832" cx="0" cy="0" r="1" gradientUnits="userSpaceOnUse" gradientTransform="translate(153 2558) rotate(90) scale(583)">
<stop stop-color="#FF9900"/>
<stop offset="1" stop-color="#FF9900" stop-opacity="0"/>
</radialGradient>
<radialGradient id="paint11_radial_43_832" cx="0" cy="0" r="1" gradientUnits="userSpaceOnUse" gradientTransform="translate(1518 2132) rotate(90) scale(583)">
<stop stop-color="#FF9900"/>
<stop offset="1" stop-color="#FF9900" stop-opacity="0"/>
</radialGradient>
<radialGradient id="paint12_radial_43_832" cx="0" cy="0" r="1" gradientUnits="userSpaceOnUse" gradientTransform="translate(233 3479) rotate(90) scale(583)">
<stop stop-color="#FF9900"/>
<stop offset="1" stop-color="#FF9900" stop-opacity="0"/>
</radialGradient>
<radialGradient id="paint13_radial_43_832" cx="0" cy="0" r="1" gradientUnits="userSpaceOnUse" gradientTransform="translate(1013 3843) rotate(90) scale(385)">
<stop stop-color="#FF9900"/>
<stop offset="1" stop-color="#FF9900" stop-opacity="0"/>
</radialGradient>
<radialGradient id="paint14_radial_43_832" cx="0" cy="0" r="1" gradientUnits="userSpaceOnUse" gradientTransform="translate(215 5276) rotate(90) scale(583)">
<stop stop-color="#FF9900"/>
<stop offset="1" stop-color="#FF9900" stop-opacity="0"/>
</radialGradient>
<radialGradient id="paint15_radial_43_832" cx="0" cy="0" r="1" gradientUnits="userSpaceOnUse" gradientTransform="translate(1118 6274) rotate(90) scale(356)">
<stop stop-color="#FF9900"/>
<stop offset="1" stop-color="#FF9900" stop-opacity="0"/>
</radialGradient>
<radialGradient id="paint16_radial_43_832" cx="0" cy="0" r="1" gradientUnits="userSpaceOnUse" gradientTransform="translate(217.5 5942.5) rotate(90) scale(459.5)">
<stop stop-color="#0066FF"/>
<stop offset="1" stop-color="#FF9900" stop-opacity="0"/>
</radialGradient>
<radialGradient id="paint17_radial_43_832" cx="0" cy="0" r="1" gradientUnits="userSpaceOnUse" gradientTransform="translate(1431 4879) rotate(90) scale(331)">
<stop stop-color="#FF9900"/>
<stop offset="1" stop-color="#FF9900" stop-opacity="0"/>
</radialGradient>
<linearGradient id="paint18_linear_43_832" x1="-214.619" y1="2020.68" x2="215.62" y2="2020.68" gradientUnits="userSpaceOnUse">
<stop stop-color="#2E3192"/>
<stop offset="1" stop-color="#1BFFFF"/>
</linearGradient>
<linearGradient id="paint19_linear_43_832" x1="13.8614" y1="2015.13" x2="167.321" y2="2015.13" gradientUnits="userSpaceOnUse">
<stop stop-color="#2E3192"/>
<stop offset="1" stop-color="#1BFFFF"/>
</linearGradient>
<linearGradient id="paint20_linear_43_832" x1="-62.868" y1="1797.48" x2="62.1085" y2="1797.48" gradientUnits="userSpaceOnUse">
<stop stop-color="#2E3192"/>
<stop offset="1" stop-color="#1BFFFF"/>
</linearGradient>
<linearGradient id="paint21_linear_43_832" x1="-132.041" y1="1797.48" x2="131.863" y2="1797.48" gradientUnits="userSpaceOnUse">
<stop stop-color="#2E3192"/>
<stop offset="1" stop-color="#1BFFFF"/>
</linearGradient>
<clipPath id="clip0_43_832">
<rect width="1600" height="6634" fill="white"/>
</clipPath>
</defs>
</svg>
