<svg width="16" height="16" viewBox="0 0 16 16" fill="none" xmlns="http://www.w3.org/2000/svg">
<path d="M12.1205 9.50906C11.8063 9.18184 11.4272 9.00689 11.0255 9.00689C10.627 9.00689 10.2447 9.1786 9.91746 9.50582L8.89368 10.5264C8.80944 10.481 8.72521 10.4389 8.64421 10.3968C8.52758 10.3385 8.41743 10.2834 8.32347 10.2251C7.36448 9.61597 6.49297 8.82222 5.6571 7.7952C5.25212 7.2833 4.97998 6.85241 4.78235 6.41503C5.04801 6.17205 5.29424 5.91934 5.53399 5.67635C5.6247 5.58564 5.71542 5.49168 5.80613 5.40097C6.48649 4.72061 6.48649 3.83937 5.80613 3.15901L4.92166 2.27454C4.82122 2.17411 4.71755 2.07043 4.62036 1.96676C4.42597 1.76589 4.22186 1.55854 4.01127 1.36415C3.69701 1.05313 3.32119 0.887899 2.92593 0.887899C2.53067 0.887899 2.14837 1.05313 1.82439 1.36415L1.81791 1.37063L0.716372 2.48189C0.301675 2.89659 0.0651685 3.402 0.0133314 3.98841C-0.0644243 4.93443 0.2142 5.81566 0.428028 6.39235C0.952879 7.80815 1.73692 9.12028 2.90649 10.5264C4.32553 12.2208 6.03292 13.5588 7.98329 14.5016C8.72845 14.8548 9.72307 15.2727 10.8343 15.344C10.9024 15.3472 10.9736 15.3505 11.0384 15.3505C11.7868 15.3505 12.4154 15.0815 12.9078 14.547C12.9111 14.5405 12.9175 14.5373 12.9208 14.5308C13.0892 14.3267 13.2836 14.142 13.4877 13.9444C13.6271 13.8115 13.7696 13.6722 13.9089 13.5264C14.2297 13.1927 14.3981 12.804 14.3981 12.4055C14.3981 12.0037 14.2264 11.6182 13.8992 11.2942L12.1205 9.50906ZM13.2804 12.9206C13.2772 12.9206 13.2772 12.9238 13.2804 12.9206C13.154 13.0567 13.0244 13.1798 12.8851 13.3158C12.6745 13.5167 12.4607 13.7273 12.2599 13.9638C11.9326 14.3137 11.5471 14.4789 11.0417 14.4789C10.9931 14.4789 10.9412 14.4789 10.8926 14.4757C9.93042 14.4141 9.03623 14.0383 8.36559 13.7176C6.53185 12.8299 4.92166 11.5696 3.58361 9.97235C2.47883 8.64079 1.74016 7.40966 1.25094 6.08781C0.949639 5.2811 0.839486 4.65257 0.888083 4.05968C0.920481 3.68062 1.06627 3.36636 1.33518 3.09746L2.43996 1.99268C2.59871 1.84365 2.76718 1.76265 2.93241 1.76265C3.13652 1.76265 3.30175 1.88576 3.40542 1.98944L3.41514 1.99916C3.61277 2.18383 3.80068 2.37498 3.99831 2.57909C4.09874 2.68276 4.20242 2.78643 4.30609 2.89335L5.19056 3.77782C5.53399 4.12124 5.53399 4.43874 5.19056 4.78216C5.09661 4.87612 5.00589 4.97007 4.91194 5.06079C4.63979 5.33941 4.38061 5.5986 4.09874 5.8513C4.09227 5.85778 4.08579 5.86102 4.08255 5.8675C3.80392 6.14613 3.85576 6.41827 3.91407 6.60294L3.92379 6.6321C4.15382 7.18935 4.4778 7.7142 4.97026 8.33949L4.9735 8.34272C5.86769 9.44426 6.81047 10.3028 7.85046 10.9605C7.98329 11.0447 8.11936 11.1128 8.24895 11.1776C8.36559 11.2359 8.47574 11.291 8.5697 11.3493C8.58265 11.3558 8.59562 11.3655 8.60857 11.372C8.71873 11.427 8.8224 11.453 8.92932 11.453C9.19822 11.453 9.36669 11.2845 9.42177 11.2294L10.5298 10.1214C10.6399 10.0112 10.8149 9.8784 11.019 9.8784C11.2199 9.8784 11.3851 10.0048 11.4855 10.1149L11.492 10.1214L13.2772 11.9065C13.6109 12.237 13.6109 12.5772 13.2804 12.9206ZM8.28459 3.65147C9.13342 3.79402 9.9045 4.19576 10.5201 4.81132C11.1356 5.42689 11.5341 6.19796 11.6799 7.0468C11.7156 7.26062 11.9002 7.40966 12.1108 7.40966C12.1367 7.40966 12.1594 7.40642 12.1853 7.40318C12.4251 7.3643 12.5838 7.13751 12.545 6.89777C12.37 5.87074 11.884 4.93443 11.1421 4.19252C10.4002 3.4506 9.46389 2.96462 8.43686 2.78967C8.19712 2.7508 7.97357 2.90955 7.93145 3.14605C7.88933 3.38256 8.04485 3.61259 8.28459 3.65147ZM15.3215 6.77141C15.0331 5.08023 14.2361 3.54131 13.0115 2.31666C11.7868 1.09201 10.2479 0.295012 8.55674 0.00666803C8.32023 -0.0354496 8.09668 0.126541 8.05456 0.363048C8.01569 0.602795 8.17444 0.826342 8.41419 0.86846C9.92394 1.12441 11.3009 1.84041 12.3959 2.93223C13.491 4.02728 14.2037 5.40421 14.4597 6.91396C14.4953 7.12779 14.68 7.27682 14.8906 7.27682C14.9165 7.27682 14.9392 7.27358 14.9651 7.27034C15.2016 7.23471 15.3636 7.00792 15.3215 6.77141Z" fill="white"/>
</svg>
