<svg width="52" height="52" viewBox="0 0 52 52" fill="none" xmlns="http://www.w3.org/2000/svg">
<g clip-path="url(#clip0_222_211)">
<path d="M26 50C39.2548 50 50 39.2548 50 26C50 12.7452 39.2548 2 26 2C12.7452 2 2 12.7452 2 26C2 39.2548 12.7452 50 26 50Z" fill="url(#paint0_linear_222_211)"/>
<path d="M34.7744 30.1826C34.0064 29.6615 32.9974 29.6641 32.2322 30.1893L31.1305 30.9455C29.9033 31.7877 28.2713 31.742 27.0917 30.8342C25.98 29.9785 24.919 29.0611 23.9114 28.0889C22.9391 27.0813 22.0217 26.0203 21.1661 24.9085C20.2582 23.729 20.2125 22.097 21.0548 20.8698L21.811 19.768C22.3361 19.0028 22.3388 17.9939 21.8176 17.2259L18.6639 12.5782C17.7927 11.2944 16.0969 10.8643 14.7213 11.582L14.7205 11.5823C11.9418 13.0321 10.776 16.3844 12.0492 19.2483C13.8817 23.3709 16.3423 27.1418 19.3118 30.4442L21.5561 32.6884C24.8585 35.6579 28.6294 38.1185 32.752 39.9511C35.6159 41.2242 38.9682 40.0584 40.4179 37.2798L40.4183 37.2789C41.1359 35.9034 40.7059 34.2076 39.422 33.3364L34.7744 30.1826Z" fill="white"/>
</g>
<rect x="2" y="2" width="48" height="48" rx="24" stroke="white" stroke-opacity="0.25" stroke-width="4"/>
<defs>
<linearGradient id="paint0_linear_222_211" x1="25.9208" y1="2" x2="25.9208" y2="39.632" gradientUnits="userSpaceOnUse">
<stop stop-color="#2E3192"/>
<stop offset="1" stop-color="#1BFFFF"/>
</linearGradient>
<clipPath id="clip0_222_211">
<rect width="48" height="48" fill="white" transform="translate(2 2)"/>
</clipPath>
</defs>
</svg>
