<svg width="32" height="32" viewBox="0 0 32 32" fill="none" xmlns="http://www.w3.org/2000/svg">
<path d="M29.3333 22.5595V26.5595C29.3349 26.9308 29.2588 27.2984 29.11 27.6386C28.9613 27.9788 28.7431 28.2843 28.4694 28.5353C28.1958 28.7863 27.8728 28.9775 27.521 29.0964C27.1692 29.2154 26.7965 29.2596 26.4267 29.2261C22.3238 28.7803 18.3827 27.3783 14.92 25.1328C11.6985 23.0857 8.96713 20.3544 6.92001 17.1328C4.66665 13.6544 3.26434 9.69414 2.82668 5.57281C2.79336 5.2041 2.83718 4.83249 2.95535 4.48164C3.07351 4.1308 3.26344 3.8084 3.51303 3.53497C3.76263 3.26155 4.06642 3.04309 4.40507 2.89351C4.74372 2.74392 5.1098 2.66649 5.48001 2.66614H9.48001C10.1271 2.65978 10.7544 2.88892 11.245 3.31086C11.7357 3.73279 12.0561 4.31874 12.1467 4.95948C12.3155 6.23957 12.6286 7.49645 13.08 8.70615C13.2594 9.18338 13.2982 9.70203 13.1919 10.2007C13.0855 10.6993 12.8385 11.157 12.48 11.5195L10.7867 13.2128C12.6848 16.5509 15.4486 19.3147 18.7867 21.2128L20.48 19.5195C20.8425 19.161 21.3002 18.9139 21.7988 18.8076C22.2975 18.7013 22.8161 18.7401 23.2933 18.9195C24.503 19.3709 25.7599 19.684 27.04 19.8528C27.6877 19.9442 28.2792 20.2704 28.7021 20.7695C29.1249 21.2685 29.3496 21.9056 29.3333 22.5595Z" fill="url(#paint0_linear_1_1463)"/>
<defs>
<linearGradient id="paint0_linear_1_1463" x1="2.81586" y1="15.9515" x2="29.3342" y2="15.9515" gradientUnits="userSpaceOnUse">
<stop stop-color="#2E3192"/>
<stop offset="1" stop-color="#1BFFFF"/>
</linearGradient>
</defs>
</svg>
