<svg width="80" height="16" viewBox="0 0 80 16" fill="none" xmlns="http://www.w3.org/2000/svg">
<path d="M8.00001 1.33325L10.06 5.50659L14.6667 6.17992L11.3333 9.42659L12.12 14.0133L8.00001 11.8466L3.88001 14.0133L4.66668 9.42659L1.33334 6.17992L5.94001 5.50659L8.00001 1.33325Z" fill="url(#paint0_linear_1_1262)"/>
<path d="M24 1.33325L26.06 5.50659L30.6667 6.17992L27.3333 9.42659L28.12 14.0133L24 11.8466L19.88 14.0133L20.6667 9.42659L17.3333 6.17992L21.94 5.50659L24 1.33325Z" fill="url(#paint1_linear_1_1262)"/>
<path d="M40 1.33325L42.06 5.50659L46.6667 6.17992L43.3333 9.42659L44.12 14.0133L40 11.8466L35.88 14.0133L36.6667 9.42659L33.3333 6.17992L37.94 5.50659L40 1.33325Z" fill="url(#paint2_linear_1_1262)"/>
<path d="M56 1.33325L58.06 5.50659L62.6667 6.17992L59.3333 9.42659L60.12 14.0133L56 11.8466L51.88 14.0133L52.6667 9.42659L49.3333 6.17992L53.94 5.50659L56 1.33325Z" fill="url(#paint3_linear_1_1262)"/>
<path d="M72 1.33325L74.06 5.50659L78.6667 6.17992L75.3333 9.42659L76.12 14.0133L72 11.8466L67.88 14.0133L68.6667 9.42659L65.3333 6.17992L69.94 5.50659L72 1.33325Z" fill="url(#paint4_linear_1_1262)"/>
<defs>
<linearGradient id="paint0_linear_1_1262" x1="1.33334" y1="1.33325" x2="14.6667" y2="1.33325" gradientUnits="userSpaceOnUse">
<stop stop-color="#FFD579"/>
<stop offset="0.0001" stop-color="#FFD579"/>
<stop offset="1" stop-color="#FFBA26"/>
</linearGradient>
<linearGradient id="paint1_linear_1_1262" x1="17.3333" y1="1.33325" x2="30.6667" y2="1.33325" gradientUnits="userSpaceOnUse">
<stop stop-color="#FFD579"/>
<stop offset="0.0001" stop-color="#FFD579"/>
<stop offset="1" stop-color="#FFBA26"/>
</linearGradient>
<linearGradient id="paint2_linear_1_1262" x1="33.3333" y1="1.33325" x2="46.6667" y2="1.33325" gradientUnits="userSpaceOnUse">
<stop stop-color="#FFD579"/>
<stop offset="0.0001" stop-color="#FFD579"/>
<stop offset="1" stop-color="#FFBA26"/>
</linearGradient>
<linearGradient id="paint3_linear_1_1262" x1="49.3333" y1="1.33325" x2="62.6667" y2="1.33325" gradientUnits="userSpaceOnUse">
<stop stop-color="#FFD579"/>
<stop offset="0.0001" stop-color="#FFD579"/>
<stop offset="1" stop-color="#FFBA26"/>
</linearGradient>
<linearGradient id="paint4_linear_1_1262" x1="65.3333" y1="1.33325" x2="78.6667" y2="1.33325" gradientUnits="userSpaceOnUse">
<stop stop-color="#FFD579"/>
<stop offset="0.0001" stop-color="#FFD579"/>
<stop offset="1" stop-color="#FFBA26"/>
</linearGradient>
</defs>
</svg>
