<svg width="49" height="48" viewBox="0 0 49 48" fill="none" xmlns="http://www.w3.org/2000/svg">
<g clip-path="url(#clip0_1_1479)">
<path d="M24.5 -0.000488281C11.2472 -0.000488281 0.5 10.7467 0.5 23.9995C0.5 37.2523 11.2472 47.9995 24.5 47.9995C37.7528 47.9995 48.5 37.2523 48.5 23.9995C48.5 10.7467 37.7528 -0.000488281 24.5 -0.000488281ZM36.5403 18.3626V21.6123C35.008 21.6128 33.5191 21.3125 32.1149 20.7201C31.212 20.3389 30.3708 19.8478 29.6014 19.2543L29.6245 29.2567C29.6148 31.5091 28.7237 33.6253 27.1109 35.2193C25.7984 36.5168 24.1353 37.3419 22.3327 37.609C21.9091 37.6717 21.4781 37.7039 21.0421 37.7039C19.1125 37.7039 17.2805 37.0788 15.7819 35.9254C15.4999 35.7083 15.2302 35.4729 14.9734 35.2193C13.2255 33.4918 12.3242 31.1505 12.476 28.6874C12.5918 26.8125 13.3424 25.0244 14.5938 23.6229C16.2494 21.7684 18.5656 20.739 21.0421 20.739C21.4781 20.739 21.9091 20.7717 22.3327 20.8344V22.0359V25.3783C21.9311 25.2458 21.5022 25.173 21.0555 25.173C18.793 25.173 16.9625 27.0189 16.9963 29.2832C17.0178 30.7319 17.8092 31.9983 18.9763 32.6963C19.5249 33.0244 20.1559 33.2277 20.8293 33.2646C21.3569 33.2936 21.8636 33.2201 22.3327 33.0652C23.9492 32.5312 25.1154 31.0129 25.1154 29.222L25.1207 22.5239V10.2951H29.596C29.6003 10.7386 29.6453 11.1712 29.7289 11.5905C30.0667 13.2874 31.0232 14.7597 32.3545 15.7634C33.5153 16.6389 34.9607 17.1579 36.5274 17.1579C36.5284 17.1579 36.5413 17.1579 36.5402 17.1569V18.3626H36.5403Z" fill="white"/>
</g>
<defs>
<clipPath id="clip0_1_1479">
<rect width="48" height="48" fill="white" transform="translate(0.5 -0.000488281)"/>
</clipPath>
</defs>
</svg>
