<svg width="16" height="16" viewBox="0 0 16 16" fill="none" xmlns="http://www.w3.org/2000/svg">
<path d="M7.99998 8C8.52739 8 9.04297 7.8436 9.4815 7.55059C9.92003 7.25757 10.2618 6.84109 10.4637 6.35382C10.6655 5.86655 10.7183 5.33038 10.6154 4.81309C10.5125 4.29581 10.2585 3.82066 9.8856 3.44772C9.51266 3.07478 9.0375 2.8208 8.52022 2.71791C8.00294 2.61501 7.46676 2.66782 6.97949 2.86965C6.49222 3.07149 6.07574 3.41328 5.78272 3.85181C5.48971 4.29034 5.33331 4.80592 5.33331 5.33333C5.33331 6.04058 5.61426 6.71885 6.11436 7.21895C6.61446 7.71905 7.29273 8 7.99998 8ZM7.99998 4C8.26369 4 8.52147 4.0782 8.74074 4.22471C8.96 4.37122 9.1309 4.57945 9.23182 4.82309C9.33273 5.06672 9.35914 5.33481 9.30769 5.59345C9.25624 5.8521 9.12926 6.08967 8.94279 6.27614C8.75632 6.46261 8.51874 6.5896 8.2601 6.64105C8.00146 6.69249 7.73337 6.66609 7.48973 6.56517C7.2461 6.46426 7.03786 6.29336 6.89135 6.07409C6.74484 5.85483 6.66664 5.59704 6.66664 5.33333C6.66664 4.97971 6.80712 4.64057 7.05717 4.39052C7.30722 4.14048 7.64636 4 7.99998 4ZM13.7733 6.10467L13.294 5.94533C13.3802 5.19862 13.3077 4.4421 13.081 3.72539C12.8544 3.00868 12.4789 2.34798 11.979 1.78659C11.4791 1.22521 10.8662 0.77584 10.1805 0.467942C9.49473 0.160045 8.75166 0.000578321 7.99998 0C7.23848 0.00029398 6.48589 0.163796 5.79292 0.47949C5.09995 0.795184 4.48269 1.25574 3.98272 1.83012C3.48276 2.4045 3.11172 3.07936 2.89458 3.80925C2.67745 4.53913 2.61927 5.30707 2.72398 6.06133C2.086 6.18029 1.49606 6.48128 1.02531 6.928C0.699425 7.23783 0.440356 7.61104 0.264028 8.02469C0.0877009 8.43834 -0.00215795 8.88368 -2.38971e-05 9.33333V12.05C0.00137717 12.7709 0.235837 13.472 0.66837 14.0487C1.1009 14.6254 1.70832 15.0468 2.39998 15.25L4.31331 15.85C4.63468 15.95 4.9694 16.0006 5.30598 16C5.6113 15.9996 5.91517 15.9579 6.20931 15.876L10.0626 14.736C10.4059 14.6423 10.768 14.6423 11.1113 14.736L12.7026 15.2693C13.0948 15.3648 13.5036 15.37 13.8981 15.2845C14.2926 15.199 14.6625 15.0251 14.98 14.7758C15.2975 14.5266 15.5543 14.2085 15.731 13.8455C15.9076 13.4826 15.9996 13.0843 16 12.6807V9.248C15.9985 8.55827 15.7837 7.88589 15.385 7.32303C14.9864 6.76017 14.4234 6.33503 13.7733 6.10467ZM5.17198 2.508C5.54281 2.13566 5.98353 1.84021 6.46883 1.63862C6.95413 1.43703 7.47447 1.33325 7.99998 1.33325C8.52549 1.33325 9.04582 1.43703 9.53112 1.63862C10.0164 1.84021 10.4571 2.13566 10.828 2.508C11.5761 3.26076 11.9966 4.27854 11.998 5.33982C11.9993 6.4011 11.5815 7.41997 10.8353 8.17467L8.46664 10.478C8.34301 10.5992 8.17678 10.6671 8.00364 10.6671C7.8305 10.6671 7.66427 10.5992 7.54064 10.478L5.17198 8.18467C4.42229 7.43026 4.00152 6.40989 4.00152 5.34633C4.00152 4.28277 4.42229 3.26241 5.17198 2.508ZM14.6666 12.6807C14.6671 12.8826 14.6214 13.0819 14.5331 13.2635C14.4449 13.4452 14.3163 13.6042 14.1573 13.7287C14.0071 13.8495 13.832 13.9357 13.6447 13.9812C13.4573 14.0267 13.2622 14.0304 13.0733 13.992L11.51 13.4667C10.9186 13.2968 10.2919 13.2931 9.69864 13.456L5.84264 14.5947C5.47216 14.6969 5.08008 14.6902 4.71331 14.5753L2.78398 13.9753C2.36641 13.8546 1.99928 13.6016 1.73771 13.2545C1.47614 12.9073 1.33423 12.4847 1.33331 12.05V9.33333C1.33181 9.06386 1.38545 8.79692 1.49092 8.54894C1.5964 8.30095 1.75149 8.07717 1.94664 7.89133C2.25215 7.60018 2.64132 7.41223 3.05931 7.354C3.32805 8.02012 3.72823 8.62527 4.23598 9.13333L6.61398 11.4353C6.98565 11.7993 7.48513 12.0031 8.00531 12.0031C8.52549 12.0031 9.02497 11.7993 9.39664 11.4353L11.772 9.12667C12.3038 8.59269 12.7158 7.95159 12.9806 7.246L13.3386 7.36467C13.7269 7.50379 14.0628 7.7593 14.3004 8.09636C14.5381 8.43341 14.666 8.83558 14.6666 9.248V12.6807Z" fill="white"/>
</svg>
