<svg width="49" height="48" viewBox="0 0 49 48" fill="none" xmlns="http://www.w3.org/2000/svg">
<g clip-path="url(#clip0_1_1468)">
<path d="M31.1316 17.3679L31.0842 17.3205C29.5145 15.7592 27.4402 14.8077 25.2328 14.6365C23.0254 14.4654 20.8292 15.0857 19.0376 16.3864C17.2459 17.6871 15.9759 19.5832 15.455 21.735C14.9341 23.8869 15.1963 26.1539 16.1947 28.13L16.6053 28.9384L15.8379 32.6584V32.7058L19.5232 31.8311L20.3632 32.2479C22.1115 33.1157 24.088 33.413 26.0142 33.098C27.9404 32.783 29.7192 31.8716 31.1 30.4921C32.8336 28.7501 33.8095 26.3942 33.8154 23.9365C33.8213 21.4789 32.8568 19.1182 31.1316 17.3679ZM30.759 27.789C30.3074 28.4995 29.5905 29.3679 28.6968 29.5858C27.1179 29.9679 24.7147 29.5858 21.7053 26.8037L21.6674 26.769C19.0495 24.3247 18.3547 22.2879 18.5095 20.6742C18.6011 19.7584 19.3653 18.9311 20.0095 18.3879C20.1116 18.3009 20.2328 18.2391 20.3633 18.2076C20.4937 18.176 20.6298 18.1756 20.7604 18.2064C20.891 18.2371 21.0126 18.2981 21.1153 18.3845C21.218 18.4709 21.2989 18.5802 21.3516 18.7037L22.3211 20.9142C22.3844 21.0553 22.4081 21.2109 22.3897 21.3645C22.3714 21.518 22.3116 21.6636 22.2168 21.7858L21.7242 22.4174C21.6218 22.5485 21.5608 22.7071 21.549 22.8731C21.5372 23.039 21.5751 23.2047 21.6579 23.349C22.1261 24.0375 22.686 24.6591 23.3221 25.1963C24.0051 25.8573 24.7819 26.4138 25.6274 26.8479C25.7814 26.9104 25.9505 26.9255 26.1132 26.8912C26.2758 26.8568 26.4244 26.7747 26.54 26.6553L27.1053 26.0837C27.2108 25.9628 27.3481 25.8738 27.5016 25.8269C27.6551 25.78 27.8186 25.7771 27.9737 25.8184L30.279 26.4816C30.4071 26.5191 30.5248 26.5859 30.6227 26.6766C30.7207 26.7674 30.7962 26.8796 30.8434 27.0045C30.8905 27.1295 30.908 27.2636 30.8944 27.3965C30.8809 27.5293 30.8367 27.6572 30.7653 27.77L30.759 27.789Z" fill="white"/>
<path d="M24.5 -0.000488281C19.7532 -0.000488281 15.1131 1.40709 11.1663 4.04424C7.21951 6.6814 4.14337 10.4297 2.32687 14.8151C0.510368 19.2005 0.0350882 24.0261 0.961134 28.6817C1.88718 33.3372 4.17296 37.6136 7.52942 40.9701C10.8859 44.3265 15.1623 46.6123 19.8178 47.5384C24.4734 48.4644 29.299 47.9891 33.6844 46.1726C38.0698 44.3561 41.8181 41.28 44.4553 37.3332C47.0924 33.3864 48.5 28.7463 48.5 23.9995C48.5 17.6343 45.9714 11.5298 41.4705 7.02895C36.9697 2.52808 30.8652 -0.000488281 24.5 -0.000488281V-0.000488281ZM36.3958 24.2806C36.3309 26.2738 35.7666 28.2188 34.7545 29.9371C33.7423 31.6555 32.3149 33.0921 30.6031 34.1152C28.8913 35.1384 26.9499 35.7152 24.9572 35.7928C22.9644 35.8705 20.9841 35.4464 19.1979 34.5595L13.1979 35.9869C13.1072 36.0077 13.0123 36.0007 12.9256 35.967C12.8388 35.9332 12.7643 35.8741 12.7116 35.7974C12.6755 35.7461 12.6505 35.688 12.638 35.6266C12.6255 35.5652 12.6258 35.5018 12.6389 35.4406L13.9021 29.3079C13.0764 27.6901 12.6319 25.9047 12.6025 24.0886C12.5731 22.2725 12.9597 20.4737 13.7326 18.83C14.5055 17.1863 15.6443 15.7412 17.0618 14.6054C18.4792 13.4696 20.1378 12.6733 21.9105 12.2772C23.6831 11.8812 25.5229 11.896 27.289 12.3206C29.055 12.7452 30.7005 13.5682 32.0995 14.7267C33.4984 15.8852 34.6138 17.3484 35.3601 19.0044C36.1064 20.6604 36.4639 22.4651 36.4052 24.2806H36.3958Z" fill="white"/>
</g>
<defs>
<clipPath id="clip0_1_1468">
<rect width="48" height="48" fill="white" transform="translate(0.5 -0.000488281)"/>
</clipPath>
</defs>
</svg>
