<svg width="52" height="52" viewBox="0 0 52 52" fill="none" xmlns="http://www.w3.org/2000/svg">
<g clip-path="url(#clip0_302_196)">
<path d="M26 49.9999C39.2548 49.9999 49.9999 39.2548 49.9999 26C49.9999 12.7451 39.2548 2 26 2C12.7451 2 2 12.7451 2 26C2 39.2548 12.7451 49.9999 26 49.9999Z" fill="url(#paint0_linear_302_196)"/>
<path d="M38.5337 31.0502V34.7153C38.5337 36.2942 37.6856 37.4381 36.1556 37.9097C35.9914 37.961 35.8205 37.9879 35.6485 37.9894C29.0694 37.9894 22.4904 37.9894 15.9122 38C14.6262 38 12.9992 36.3951 13.0059 35.0668C13.0328 29.2253 13.0309 23.3842 13.0002 17.5434C12.9954 16.7203 13.0962 15.9846 13.6062 15.3344C14.1681 14.6188 14.8999 14.0666 15.8037 14.0368C17.8658 13.9676 19.9336 14.0166 21.9967 14.0195C22.0503 14.0266 22.1031 14.0392 22.1542 14.057C21.5318 14.5103 20.9114 14.9281 20.3293 15.393C18.3873 16.945 17.0264 18.8996 16.4434 21.3228C15.6596 24.5883 16.3992 27.5494 18.4363 30.1964C18.7195 30.5804 19.0414 30.9344 19.3968 31.2528C20.1257 31.8743 20.0278 32.5283 19.3871 33.2237C18.8464 33.8105 18.2039 34.3032 17.5479 34.891C18.1078 34.9448 18.6457 35.0495 19.1806 35.037C20.5176 35.0063 21.7518 34.4665 23.0417 34.1957C23.4105 34.1179 23.8446 34.0996 24.1942 34.2178C25.4474 34.65 26.7539 34.9086 28.0773 34.9861C29.9703 35.0994 31.7702 34.794 33.5518 34.187C35.4228 33.5454 37.0219 32.513 38.5337 31.0502Z" fill="white"/>
<path d="M21.698 25.6428C22.5788 25.6428 23.3154 25.6303 24.0502 25.6476C24.3739 25.6553 24.7302 25.7436 24.7628 26.1278C24.783 26.3583 24.6533 26.6263 24.5227 26.8356C24.4661 26.9317 24.2394 26.9423 24.0896 26.9442C22.9687 26.9519 21.8479 26.9346 20.728 26.9557C20.3246 26.9624 19.9664 26.8654 19.7906 26.5168C19.6148 26.1681 19.8088 25.8032 20.0422 25.5121C20.8721 24.4749 21.7144 23.4472 22.549 22.4137C22.599 22.3282 22.6408 22.2382 22.6739 22.1448C21.9286 22.1448 21.2332 22.1448 20.5388 22.1448C20.0874 22.1448 19.8463 21.9364 19.8396 21.558C19.8329 21.1796 20.0768 20.9462 20.5196 20.9423C21.6558 20.9318 22.793 20.926 23.9292 20.9423C24.5467 20.9519 24.8474 21.4485 24.5179 21.969C24.1145 22.6058 23.6362 23.1965 23.1733 23.7939C22.7104 24.3913 22.2388 24.9666 21.698 25.6428Z" fill="white"/>
<path d="M28.0302 26.6791C27.1437 27.4715 26.0517 27.07 25.3919 26.4966C24.5764 25.7878 24.5063 23.9803 25.1613 23.1764C25.8461 22.335 26.8815 21.9114 28.0955 22.7096C28.376 22.4704 28.6555 22.2514 29.0675 22.4618C29.4795 22.6721 29.5016 23.0448 29.5016 23.4328V25.93C29.5016 26.3286 29.5199 26.7348 29.0829 26.9576C28.7371 27.1248 28.5709 27.0835 28.0302 26.6791ZM28.0052 24.7073C28.0052 24.1042 27.5874 23.5999 27.0832 23.5903C26.603 23.5817 26.1228 24.0974 26.1439 24.6468C26.1708 25.3796 26.5281 25.7849 27.0947 25.7456C27.6614 25.7062 28.0072 25.3402 28.0052 24.7035V24.7073Z" fill="white"/>
<path d="M34.328 22.2794C35.6726 22.3197 36.7224 23.2667 36.6926 24.7083C36.6619 26.2009 35.7216 27.0835 34.3155 27.121C32.9094 27.1585 31.8721 26.0645 31.9269 24.6027C31.972 23.3868 32.8614 22.2688 34.328 22.2794ZM35.2116 24.7304C35.3288 24.0908 34.7477 23.6067 34.2675 23.5923C33.7671 23.576 33.3339 24.1302 33.3455 24.7256C33.357 25.2923 33.7873 25.7994 34.2713 25.8167C34.7823 25.835 35.2097 25.3403 35.2116 24.7304Z" fill="white"/>
<path d="M31.5224 23.6834C31.5224 24.4662 31.5455 25.2499 31.5119 26.0308C31.4965 26.389 31.4859 26.7991 31.0259 26.9547C30.5111 27.1315 30.0395 26.8587 30.0337 26.3093C30.0165 24.568 30.0222 22.8258 30.0337 21.0845C30.0337 20.7195 30.2498 20.5082 30.6158 20.4563C30.9817 20.4045 31.2881 20.5044 31.4187 20.8799C31.4843 21.0727 31.5186 21.2747 31.5205 21.4783C31.5224 22.213 31.5224 22.9477 31.5224 23.6834Z" fill="white"/>
</g>
<rect x="2" y="2" width="48" height="48" rx="24" stroke="white" stroke-opacity="0.25" stroke-width="4"/>
<defs>
<linearGradient id="paint0_linear_302_196" x1="25.9207" y1="2" x2="25.9207" y2="39.6319" gradientUnits="userSpaceOnUse">
<stop stop-color="#2E3192"/>
<stop offset="1" stop-color="#1BFFFF"/>
</linearGradient>
<clipPath id="clip0_302_196">
<rect width="48" height="48" fill="white" transform="translate(2 2)"/>
</clipPath>
</defs>
</svg>
